<?xml version="1.0" encoding="iso-8859-1"?>
<!-- Generator: Adobe Illustrator 19.0.0, SVG Export Plug-In . SVG Version: 6.00 Build 0)  -->
<svg version="1.1" id="Layer_1" xmlns="http://www.w3.org/2000/svg" xmlns:xlink="http://www.w3.org/1999/xlink" x="0px" y="0px"
	 viewBox="0 0 512.134 512.134" style="enable-background:new 0 0 512.134 512.134;" xml:space="preserve">
<path d="M40,165.341c0,38.863,28.882,86.363,83.522,137.365c30.386,28.362,62.396,52.034,86.836,68.632
	c-8.268,10.544-14.464,22.785-17.978,36.104c-26.306-17.631-62.183-43.787-96.152-75.494C32.376,272.347,0,216.292,0,165.341
	c0-42.477,13.946-79.052,40.331-105.771C65.485,34.096,100.171,20.067,138,20.067c49.729,0,83.313,19.166,102.73,35.244
	c5.29,4.38,10.599,9.511,15.434,14.965c4.73-5.293,9.901-10.288,15.051-14.583C290.705,39.44,324.358,20.067,374,20.067
	c37.829,0,72.515,14.029,97.669,39.502c16.614,16.825,28.291,37.561,34.665,61.215l-36.714,19.329
	c-9.432-48.187-46.122-80.046-95.62-80.046c-23.782,0-44.988,5.555-63.235,16.492c-33.547,24.873-54.104,68.263-54.104,68.263
	s-7.109-15.644-20.296-33.528c0.057,0.229,0.1,0.366,0.102,0.37c-0.049-0.144-0.11-0.304-0.176-0.471
	c-7.905-10.707-17.983-22.203-30.025-31.627C190.386,69.026,167.917,60.067,138,60.067C80.299,60.067,40,103.357,40,165.341z
	 M512.134,388.067c0,1.072-0.108,2.117-0.271,3.144c0.081,1.276,0.137,2.559,0.137,3.856c0,33.084-26.916,60-60,60s-60-26.916-60-60
	s26.916-60,60-60c7.061,0,13.836,1.235,20.134,3.486V226.081c-26.297,9.405-69.002,21.13-123.051,23.541v175.404
	c0,1-0.098,1.975-0.239,2.936c0.092,1.358,0.156,2.724,0.156,4.105c0,33.084-26.916,60-60,60s-60-26.916-60-60s26.916-60,60-60
	c7.042,0,13.8,1.23,20.083,3.468V210.067h20c91.783,0,153.165-31.401,153.774-31.719l29.235-15.219l0.041,32.938V388.067z
	 M309,432.067c0-11.028-8.972-20-20-20s-20,8.972-20,20s8.972,20,20,20S309,443.095,309,432.067z M472,395.067
	c0-11.028-8.972-20-20-20s-20,8.972-20,20s8.972,20,20,20S472,406.095,472,395.067z"/>
<g>
</g>
<g>
</g>
<g>
</g>
<g>
</g>
<g>
</g>
<g>
</g>
<g>
</g>
<g>
</g>
<g>
</g>
<g>
</g>
<g>
</g>
<g>
</g>
<g>
</g>
<g>
</g>
<g>
</g>
</svg>
