<?xml version="1.0" encoding="iso-8859-1"?>
<!-- Generator: Adobe Illustrator 19.0.0, SVG Export Plug-In . SVG Version: 6.00 Build 0)  -->
<svg version="1.1" id="Layer_1" xmlns="http://www.w3.org/2000/svg" xmlns:xlink="http://www.w3.org/1999/xlink" x="0px" y="0px"
	 viewBox="0 0 512 512" style="enable-background:new 0 0 512 512;" xml:space="preserve">
<path d="M452,19.999h-74.707L333,0.067L293.105,18.02L254.206,0.066L213.1,18.112L173,0.067l-44.293,19.932H60
	c-33.084,0-60,26.916-60,60v352c0,33.084,26.916,60,60,60h68.607l43.187,19.933l41.105-18.046L253,511.93l40.196-18.088
	l42.215,18.092l42.086-19.936H452c33.084,0,60-26.916,60-60v-352C512,46.915,485.084,19.999,452,19.999z M40,431.999v-352
	c0-11.028,8.972-20,20-20h53v40H70v40h43v40H70v40h43v40H70v40h43v72H70v40h43v40H60C48.972,451.999,40,443.026,40,431.999z
	 M153,459.202V52.93l20-9l20,9v406.006l-20.795,9.13L153,459.202z M233,459.067V53.061l20.795-9.13L273,52.795v406.272l-20,9
	L233,459.067z M334.589,468.063L313,458.811V52.93l20-9l20,9v406.412L334.589,468.063z M472,431.999c0,11.028-8.972,20-20,20h-59
	v-392h59c11.028,0,20,8.972,20,20V431.999z M452,118.999c0,11.046-8.954,20-20,20s-20-8.954-20-20c0-11.046,8.954-20,20-20
	S452,107.953,452,118.999z M452,188.999c0,11.046-8.954,20-20,20s-20-8.954-20-20c0-11.046,8.954-20,20-20S452,177.953,452,188.999z
	 M452,258.999c0,11.046-8.954,20-20,20s-20-8.954-20-20c0-11.046,8.954-20,20-20S452,247.953,452,258.999z M452,328.999
	c0,11.046-8.954,20-20,20s-20-8.954-20-20c0-11.046,8.954-20,20-20S452,317.953,452,328.999z M452,398.999c0,11.046-8.954,20-20,20
	s-20-8.954-20-20c0-11.046,8.954-20,20-20S452,387.953,452,398.999z"/>
<g>
</g>
<g>
</g>
<g>
</g>
<g>
</g>
<g>
</g>
<g>
</g>
<g>
</g>
<g>
</g>
<g>
</g>
<g>
</g>
<g>
</g>
<g>
</g>
<g>
</g>
<g>
</g>
<g>
</g>
</svg>
