<?xml version="1.0" encoding="iso-8859-1"?>
<!-- Generator: Adobe Illustrator 19.0.0, SVG Export Plug-In . SVG Version: 6.00 Build 0)  -->
<svg version="1.1" id="Layer_1" xmlns="http://www.w3.org/2000/svg" xmlns:xlink="http://www.w3.org/1999/xlink" x="0px" y="0px"
	 viewBox="0 0 512 512" style="enable-background:new 0 0 512 512;" xml:space="preserve">
<path d="M382,147h60.569C404.23,81.146,333.901,40,256,40C136.897,40,40,136.897,40,256s96.897,216,216,216s216-96.897,216-216l40,0
	c0,68.38-26.629,132.668-74.98,181.02C388.668,485.371,324.38,512,256,512s-132.667-26.628-181.02-74.98
	C26.629,388.667,0,324.38,0,256c0-68.38,26.629-132.668,74.98-181.02C123.332,26.629,187.62,0,256,0
	c51.89,0,101.863,15.445,144.519,44.666C429.323,64.398,453.53,89.483,472,118.491V57h40v130H382V147z M192,158.343l169.973,98.222
	L192,354.788V158.343z M232,285.475l50.027-28.909L232,227.657V285.475z"/>
<g>
</g>
<g>
</g>
<g>
</g>
<g>
</g>
<g>
</g>
<g>
</g>
<g>
</g>
<g>
</g>
<g>
</g>
<g>
</g>
<g>
</g>
<g>
</g>
<g>
</g>
<g>
</g>
<g>
</g>
</svg>
