<?xml version="1.0" encoding="iso-8859-1"?>
<!-- Generator: Adobe Illustrator 19.0.0, SVG Export Plug-In . SVG Version: 6.00 Build 0)  -->
<svg version="1.1" id="Layer_1" xmlns="http://www.w3.org/2000/svg" xmlns:xlink="http://www.w3.org/1999/xlink" x="0px" y="0px"
	 viewBox="0 0 512 512" style="enable-background:new 0 0 512 512;" xml:space="preserve">
<path d="M310,140.568V1.316l-28.073,12.385C281.286,13.985,216.986,42,148,42h-20v234.484C115.195,268.576,100.124,264,84,264
	c-46.318,0-84,37.682-84,84s37.682,84,84,84s84-37.682,84-84V173.578c79.639-3.42,128.479-26.5,130.676-27.558L310,140.568z M84,392
	c-24.262,0-44-19.738-44-44s19.738-44,44-44s44,19.738,44,44S108.262,392,84,392z M270,114.527
	c-17.046,6.17-52.636,16.692-102,19.012V81.347c40.823-2.618,77.94-12.596,102-20.552V114.527z M209,472h303v40H209V472z M208,236
	h304v40H208V236z M350,118h162v40H350V118z M209,354h303v40H209V354z M512,0v40H350V0H512z"/>
<g>
</g>
<g>
</g>
<g>
</g>
<g>
</g>
<g>
</g>
<g>
</g>
<g>
</g>
<g>
</g>
<g>
</g>
<g>
</g>
<g>
</g>
<g>
</g>
<g>
</g>
<g>
</g>
<g>
</g>
</svg>
