<?xml version="1.0" encoding="iso-8859-1"?>
<!-- Generator: Adobe Illustrator 19.0.0, SVG Export Plug-In . SVG Version: 6.00 Build 0)  -->
<svg version="1.1" id="Layer_1" xmlns="http://www.w3.org/2000/svg" xmlns:xlink="http://www.w3.org/1999/xlink" x="0px" y="0px"
	 viewBox="0 0 501.96 501.96" style="enable-background:new 0 0 501.96 501.96;" xml:space="preserve">
<path d="M438.395,26.389c-15.554,0-30.057,6.546-40.838,18.432c-9.908,10.923-15.591,25.554-15.591,40.14v62.649
	c-5.371-1.694-11.081-2.609-17-2.609c-14.085,0-26.984,5.185-36.942,13.745C318.051,150.188,305.107,145,290.966,145
	c-5.919,0-11.629,0.908-17,2.59V57c0-31.43-25.57-57-57-57s-57,25.57-57,57v221.96c0,9.655-5.971,23.084-15.838,25.256
	l-39.358-35.152l-0.083-0.073c-24.795-21.902-62.787-19.548-84.69,5.247c-21.803,24.684-19.569,62.445,4.912,84.393l100.213,96.1
	l0.097,0.092c2.033,1.923,50.5,47.105,112.746,47.105c0.794,0,146.422,0.032,146.427,0.032c62.074,0,112.574-50.5,112.574-112.574
	V83.603C496.966,50.451,472.334,26.389,438.395,26.389z M364.966,185c9.374,0,17,7.816,17,17.423v36.537v30
	c0,9.607-7.626,17.423-17,17.423s-17-7.816-17-17.423v-66.537C347.966,192.816,355.592,185,364.966,185z M290.966,185
	c9.374,0,17,7.626,17,17v66.96c0,0.142,0.01,0.281,0.011,0.423h-0.011c0,9.374-7.626,17-17,17s-17-7.626-17-17V202.96V202
	C273.966,192.626,281.592,185,290.966,185z M456.966,389.386c0,40.018-32.557,72.574-72.57,72.574c0,0-145.637-0.032-146.431-0.032
	c-45.619,0-84.144-35.135-85.233-36.141L52.327,329.503l-0.602-0.554c-8.265-7.301-9.049-19.965-1.749-28.23
	c7.29-8.252,19.928-9.048,28.194-1.781l41.092,36.701c6.138,5.483,13.892,8.626,21.835,8.852c0.746,0.02,1.503,0.018,2.262-0.011
	c34.964-1.335,56.607-35.049,56.607-65.519V57c0-9.374,7.626-17,17-17s17,7.626,17,17v145v0.96v66.423c0,31.43,25.57,57,57,57
	c14.141,0,27.085-5.188,37.058-13.745c9.958,8.56,22.856,13.745,36.942,13.745c31.43,0,57-25.76,57-57.423v-30v-36.537V84.96
	c0-8.784,6.747-18.571,16.429-18.571c5.584,0,18.571,1.677,18.571,17.214V389.386z"/>
<g>
</g>
<g>
</g>
<g>
</g>
<g>
</g>
<g>
</g>
<g>
</g>
<g>
</g>
<g>
</g>
<g>
</g>
<g>
</g>
<g>
</g>
<g>
</g>
<g>
</g>
<g>
</g>
<g>
</g>
</svg>
