<?xml version="1.0" encoding="iso-8859-1"?>
<!-- Generator: Adobe Illustrator 19.0.0, SVG Export Plug-In . SVG Version: 6.00 Build 0)  -->
<svg version="1.1" id="Layer_1" xmlns="http://www.w3.org/2000/svg" xmlns:xlink="http://www.w3.org/1999/xlink" x="0px" y="0px"
	 viewBox="0 0 512 512" style="enable-background:new 0 0 512 512;" xml:space="preserve">
<path d="M437.02,74.98C388.667,26.628,324.38,0,256,0S123.332,26.629,74.98,74.98C26.629,123.333,0,187.62,0,256
	c0,68.38,26.629,132.667,74.98,181.019C123.333,485.372,187.62,512,256,512s132.668-26.629,181.02-74.98
	C485.371,388.667,512,324.38,512,256C512,187.62,485.371,123.333,437.02,74.98z M256,472c-119.103,0-216-96.897-216-216
	S136.897,40,256,40s216,96.897,216,216S375.103,472,256,472z M264,143.011L80.003,257.432L264,370.817v-78.262l127,78.262V143.011
	l-127,78.976V143.011z M351,214.989v84.194l-68.003-41.905L351,214.989z M224,299.183l-68.003-41.905L224,214.989V299.183z"/>
<g>
</g>
<g>
</g>
<g>
</g>
<g>
</g>
<g>
</g>
<g>
</g>
<g>
</g>
<g>
</g>
<g>
</g>
<g>
</g>
<g>
</g>
<g>
</g>
<g>
</g>
<g>
</g>
<g>
</g>
</svg>
