<?xml version="1.0" encoding="iso-8859-1"?>
<!-- Generator: Adobe Illustrator 19.0.0, SVG Export Plug-In . SVG Version: 6.00 Build 0)  -->
<svg version="1.1" id="Layer_1" xmlns="http://www.w3.org/2000/svg" xmlns:xlink="http://www.w3.org/1999/xlink" x="0px" y="0px"
	 viewBox="0 0 512 512" style="enable-background:new 0 0 512 512;" xml:space="preserve">
<path d="M414.05,472c37.023-31.209,60.589-77.901,60.589-130c0-93.738-76.262-170-170-170c-46.399,0-88.508,18.692-119.214,48.933
	c26.743-101.217,94.056-187.456,94.898-188.522L305.971,0H43.638L0.362,0.012l28.056,32.963
	c0.269,0.315,27.153,32.107,53.598,80.904c24.006,44.298,52.623,112.2,52.623,184.121v53h0.238
	c4.539,86.59,74.172,156.223,160.762,160.761V512h216v-40H414.05z M434.638,342c0,71.683-58.318,130-130,130
	c-16.189,0-31.692-2.983-46-8.415V329.043c0-7.191,5.851-13.043,13.043-13.043s13.043,5.852,13.043,13.043v22.501
	c0,29.476,23.98,53.456,53.457,53.456s53.457-23.98,53.457-53.456V245.489C418.025,269.299,434.638,303.744,434.638,342z
	 M116.706,93.941C105.015,72.455,93.356,54.176,83.595,40H225.98c-9.887,15.007-21.938,34.619-34.031,57.542
	c-15.35,29.094-27.645,57.434-36.851,84.893C143.987,148.191,129.73,117.877,116.706,93.941z M174.638,342
	c0-71.683,58.318-130,130-130c16.566,0,32.416,3.121,47,8.795v130.749c0,7.42-6.037,13.456-13.457,13.456
	s-13.457-6.036-13.457-13.456v-22.501c0-29.248-23.795-53.043-53.043-53.043c-29.248,0-53.043,23.795-53.043,53.043v110.355
	C191.673,415.562,174.638,380.735,174.638,342z"/>
<g>
</g>
<g>
</g>
<g>
</g>
<g>
</g>
<g>
</g>
<g>
</g>
<g>
</g>
<g>
</g>
<g>
</g>
<g>
</g>
<g>
</g>
<g>
</g>
<g>
</g>
<g>
</g>
<g>
</g>
</svg>
