<?xml version="1.0" encoding="iso-8859-1"?>
<!-- Generator: Adobe Illustrator 19.0.0, SVG Export Plug-In . SVG Version: 6.00 Build 0)  -->
<svg version="1.1" id="Layer_1" xmlns="http://www.w3.org/2000/svg" xmlns:xlink="http://www.w3.org/1999/xlink" x="0px" y="0px"
	 viewBox="0 0 512 512" style="enable-background:new 0 0 512 512;" xml:space="preserve">
<path d="M91.5,60c0-11.028,8.972-20,20-20h174.889v71.111c0,33.084,26.916,60,60,60h71V290h40V142.857L315.258,0H111.5
	c-33.084,0-60,26.916-60,60v230h40V60z M326.389,111.111V67.9l62.889,63.211h-42.889
	C335.361,131.111,326.389,122.139,326.389,111.111z M293,330h-77.5v182h40v-71H293c30.603,0,55.5-24.897,55.5-55.5
	S323.603,330,293,330z M293,401h-37.5v-31H293c8.547,0,15.5,6.953,15.5,15.5S301.547,401,293,401z M494.5,453.272
	c0,32.383-26.542,58.728-59.166,58.728H371.5v-40h63.834c9.795,0,18.157-7.623,19.081-17.002c-1.547-2.15-7.25-8.64-25.176-18.937
	c-12.806-7.356-24.55-12.448-24.667-12.499L392.5,418.35v-22.717L419.477,370H371.5v-40h117v29.593l-42.243,40.139
	c2.483,1.386,5.027,2.855,7.578,4.396C481.578,420.872,494.5,436.488,494.5,453.272z M150.917,330H182.5v182h-40V407.151
	L99.956,463.1L57.5,406.959V512h-40V330h31.95l50.594,66.9L150.917,330z"/>
<g>
</g>
<g>
</g>
<g>
</g>
<g>
</g>
<g>
</g>
<g>
</g>
<g>
</g>
<g>
</g>
<g>
</g>
<g>
</g>
<g>
</g>
<g>
</g>
<g>
</g>
<g>
</g>
<g>
</g>
</svg>
