<?xml version="1.0" encoding="iso-8859-1"?>
<!-- Generator: Adobe Illustrator 19.0.0, SVG Export Plug-In . SVG Version: 6.00 Build 0)  -->
<svg version="1.1" id="Layer_1" xmlns="http://www.w3.org/2000/svg" xmlns:xlink="http://www.w3.org/1999/xlink" x="0px" y="0px"
	 viewBox="0 0 513 513" style="enable-background:new 0 0 513 513;" xml:space="preserve">
<path d="M513,264.5c0,59-48,107-107,107h-0.392c-1.022,0-3.825,0-6.308,0c-2.304,0-4.333,0-4.41,0l0.11-20l0.053-20
	c0.447-0.001,8.644-0.001,10.552,0H406c36.944,0,67-30.056,67-67c0-36.944-30.056-67-67-67h-29v-35c0-67.271-54.729-122-122-122
	c-62.785,0-114.956,47.021-121.354,109.375l-1.7,16.566l-16.6,1.329C73.096,171.151,40,207.052,40,249.5
	c0,45.215,37.114,82,82.733,82c0.147,0,11.693-0.003,12.209-0.004l0.036,18.07l0.241,21.929c-0.291,0.003-12.366,0.005-12.486,0.005
	C55.058,371.5,0,316.771,0,249.5c0-30.867,11.554-60.323,32.533-82.942c17.172-18.514,39.37-31.092,63.687-36.322
	c6.806-33.64,24.188-64.345,49.911-87.701C175.984,15.428,214.647,0.5,255,0.5c87.839,0,159.574,70.277,161.94,157.555
	C470.823,163.549,513,209.191,513,264.5z M193.166,284.584L175,286.258v140.358c-0.992-0.068-1.99-0.116-3-0.116
	c-23.748,0-43,19.252-43,43s19.252,43,43,43c22.652,0,41.2-17.52,42.865-39.747c0.031-0.275,0.044-0.555,0.063-0.834
	c0.008-0.139,0.015-0.277,0.021-0.416c0.017-0.335,0.051-0.665,0.051-1.003V322.069c21.941-3.364,60.723-10.953,100-26.577v101.124
	c-0.992-0.068-1.99-0.116-3-0.116c-23.748,0-43,19.252-43,43s19.252,43,43,43s43-19.252,43-43c0-1.631-0.099-3.239-0.276-4.822
	c0.166-1.037,0.276-2.094,0.276-3.178V231.686l-29.166,15.039C266.221,277.462,193.875,284.518,193.166,284.584z"/>
<g>
</g>
<g>
</g>
<g>
</g>
<g>
</g>
<g>
</g>
<g>
</g>
<g>
</g>
<g>
</g>
<g>
</g>
<g>
</g>
<g>
</g>
<g>
</g>
<g>
</g>
<g>
</g>
<g>
</g>
</svg>
