<?xml version="1.0" encoding="iso-8859-1"?>
<!-- Generator: Adobe Illustrator 19.0.0, SVG Export Plug-In . SVG Version: 6.00 Build 0)  -->
<svg version="1.1" id="Layer_1" xmlns="http://www.w3.org/2000/svg" xmlns:xlink="http://www.w3.org/1999/xlink" x="0px" y="0px"
	 viewBox="0 0 512 512" style="enable-background:new 0 0 512 512;" xml:space="preserve">
<path d="M250.36,354c-2.869,10.183-4.36,20.953-4.36,32.063c0,2.647,0.118,5.293,0.327,7.938H174v-40H250.36z M452,0H60
	C26.916,0,0,26.916,0,60v392c0,33.084,26.916,60,60,60h267.616c-8.595-6.437-17.896-13.975-27.005-22.426
	c-6.277-5.823-12.005-11.683-17.208-17.574H60c-11.028,0-20-8.972-20-20V60c0-11.028,8.972-20,20-20h392c11.028,0,20,8.972,20,20
	v220.196c14.665,3.628,28.257,10.287,40,19.648V60C512,26.916,485.084,0,452,0z M94,394h40v-40H94V394z M134,236H94v40h40V236z
	 M134,118H94v40h40V118z M417,236H174v40h243V236z M418,118H174v40h244V118z M492.568,336.045
	C505.099,348.657,512,366.42,512,386.063c0,23.487-14.069,48.447-41.817,74.188c-23.765,22.045-49.8,37.512-54.778,40.389
	c-2.004,1.157-6.454,3.71-6.454,3.71l-9.947,5.706l-9.949-5.702c0,0-4.457-2.555-6.459-3.712
	c-4.981-2.879-31.016-18.345-54.78-40.391C300.068,434.51,286,409.55,286,386.063c0-19.643,6.901-37.405,19.432-50.018
	C317.635,323.764,334.351,317,352.5,317c22.371,0,37.211,7.88,46.55,15.974C409.915,323.626,425.307,317,445.5,317
	C463.649,317,480.365,323.764,492.568,336.045z M472,386.063C472,368.407,461.598,357,445.5,357c-2.003,0-3.844,0.121-5.559,0.328
	c-7.21,1.977-14.405,7.972-20.704,14.916c-0.179,0.635-0.242,1.026-0.245,1.057c0.001-0.008,0.008-0.095,0.008-0.254h-0.483
	C407.294,385.682,399.095,401,399.095,401s-8.346-15.318-19.868-27.953H379c0,0.159,0.007,0.246,0.008,0.254
	c-0.002-0.023-0.041-0.259-0.135-0.644c-6.744-7.321-14.546-13.667-22.388-15.493c-1.259-0.104-2.582-0.164-3.984-0.164
	c-16.098,0-26.5,11.407-26.5,29.063c0,23.688,41.52,58.822,72.999,77.813C430.475,444.888,472,409.75,472,386.063z"/>
<g>
</g>
<g>
</g>
<g>
</g>
<g>
</g>
<g>
</g>
<g>
</g>
<g>
</g>
<g>
</g>
<g>
</g>
<g>
</g>
<g>
</g>
<g>
</g>
<g>
</g>
<g>
</g>
<g>
</g>
</svg>
