<?xml version="1.0" encoding="iso-8859-1"?>
<!-- Generator: Adobe Illustrator 19.0.0, SVG Export Plug-In . SVG Version: 6.00 Build 0)  -->
<svg version="1.1" id="Layer_1" xmlns="http://www.w3.org/2000/svg" xmlns:xlink="http://www.w3.org/1999/xlink" x="0px" y="0px"
	 viewBox="0 0 512 512" style="enable-background:new 0 0 512 512;" xml:space="preserve">
<path d="M256.164,471.284L0.88,216H109v-66h40v106H97.448l158.716,158.716L414.88,256H362V150h40v66h109.448L256.164,471.284z
	 M149,0h-40v40h40V0z M402,0h-40v40h40V0z M149,70h-40v40h40V70z M402,70h-40v40h40V70z M0,472v40h512v-40H0z M232,232
	c23.748,0,43-19.252,43-43v-85.314c21.064-3.039,34.569-9.939,36.41-10.92L322,86V41l-29.339,16.43
	c-1.167,0.575-16.07,7.688-37.661,7.688h-20v80.999c-0.992-0.068-1.99-0.116-3-0.116c-23.748,0-43,19.252-43,43S208.252,232,232,232
	z"/>
<g>
</g>
<g>
</g>
<g>
</g>
<g>
</g>
<g>
</g>
<g>
</g>
<g>
</g>
<g>
</g>
<g>
</g>
<g>
</g>
<g>
</g>
<g>
</g>
<g>
</g>
<g>
</g>
<g>
</g>
</svg>
