<?xml version="1.0" encoding="iso-8859-1"?>
<!-- Generator: Adobe Illustrator 19.0.0, SVG Export Plug-In . SVG Version: 6.00 Build 0)  -->
<svg version="1.1" id="Layer_1" xmlns="http://www.w3.org/2000/svg" xmlns:xlink="http://www.w3.org/1999/xlink" x="0px" y="0px"
	 viewBox="0 0 512 512" style="enable-background:new 0 0 512 512;" xml:space="preserve">
<path d="M488.375,304.564c-4.842-6.72-10.322-12.587-16.375-17.592V216c0-57.695-22.468-111.938-63.266-152.735
	C367.938,22.468,313.695,0,256,0S144.062,22.468,103.265,63.265C62.468,104.062,40,158.304,40,216v71.549
	C14.668,308.599,0,344.001,0,389c0,74.72,40.43,123,103,123h37V266h-37c-8.047,0-15.725,0.804-23,2.355V216
	c0-97.047,78.953-176,176-176s176,78.953,176,176v52.14c-6.989-1.414-14.331-2.139-22-2.139h-38v246h38
	c33.096,0,60.198-13.336,78.375-38.564C503.831,451.983,512,422.786,512,389S503.831,326.017,488.375,304.564z M100,471.945
	C45.924,469.935,40,413.51,40,389s5.924-80.935,60-82.945V471.945z M412,471.975V306.025c54.106,1.366,60,58.319,60,82.975
	S466.106,470.608,412,471.975z M183,483.837l155.973-90.132L183,303.573V483.837z M223,372.886l36.027,20.819L223,414.524V372.886z"
	/>
<g>
</g>
<g>
</g>
<g>
</g>
<g>
</g>
<g>
</g>
<g>
</g>
<g>
</g>
<g>
</g>
<g>
</g>
<g>
</g>
<g>
</g>
<g>
</g>
<g>
</g>
<g>
</g>
<g>
</g>
</svg>
