<?xml version="1.0" encoding="iso-8859-1"?>
<!-- Generator: Adobe Illustrator 19.0.0, SVG Export Plug-In . SVG Version: 6.00 Build 0)  -->
<svg version="1.1" id="Layer_1" xmlns="http://www.w3.org/2000/svg" xmlns:xlink="http://www.w3.org/1999/xlink" x="0px" y="0px"
	 viewBox="0 0 512 512" style="enable-background:new 0 0 512 512;" xml:space="preserve">
<path d="M296,421.5h216v40H296c-10.841,0-20,9.617-20,21h-40c0-11.383-9.159-21-20-21H0v-40h216c14.876,0,28.939,5.567,40,15.733
	C267.061,427.067,281.124,421.5,296,421.5z M512,29.5v352H296c-11.028,0-20,8.972-20,20h-40c0-11.028-8.972-20-20-20H0v-352h216
	c15.355,0,29.376,5.805,40,15.327c10.624-9.522,24.645-15.327,40-15.327H512z M236,344.927V89.5c0-11.028-8.972-20-20-20H40v272h176
	C223.009,341.5,229.742,342.708,236,344.927z M472,69.5H296c-11.028,0-20,8.972-20,20v255.44c6.26-2.22,12.989-3.44,20-3.44h176
	V69.5z M349,300.5c23.748,0,43-19.252,43-43v-85.314c21.064-3.039,34.569-9.939,36.41-10.92L439,154.5v-45l-29.339,16.43
	c-1.167,0.575-16.07,7.688-37.661,7.688h-20v80.999c-0.992-0.068-1.99-0.116-3-0.116c-23.748,0-43,19.252-43,43
	S325.252,300.5,349,300.5z"/>
<g>
</g>
<g>
</g>
<g>
</g>
<g>
</g>
<g>
</g>
<g>
</g>
<g>
</g>
<g>
</g>
<g>
</g>
<g>
</g>
<g>
</g>
<g>
</g>
<g>
</g>
<g>
</g>
<g>
</g>
</svg>
