<?xml version="1.0" encoding="iso-8859-1"?>
<!-- Generator: Adobe Illustrator 19.0.0, SVG Export Plug-In . SVG Version: 6.00 Build 0)  -->
<svg version="1.1" id="Layer_1" xmlns="http://www.w3.org/2000/svg" xmlns:xlink="http://www.w3.org/1999/xlink" x="0px" y="0px"
	 viewBox="0 0 512 512" style="enable-background:new 0 0 512 512;" xml:space="preserve">
<path d="M256,512c-68.38,0-132.667-26.629-181.02-74.98C26.629,388.667,0,324.38,0,256S26.629,123.333,74.98,74.98
	C123.333,26.629,187.62,0,256,0s132.667,26.629,181.02,74.98C485.371,123.333,512,187.62,512,256s-26.629,132.667-74.98,181.02
	C388.667,485.371,324.38,512,256,512z M256,40C136.897,40,40,136.897,40,256s96.897,216,216,216s216-96.897,216-216
	S375.103,40,256,40z M256,276c11.046,0,20-8.954,20-20c0-11.046-8.954-20-20-20c-11.046,0-20,8.954-20,20
	C236,267.046,244.954,276,256,276z M256,352c-52.935,0-96-43.065-96-96s43.065-96,96-96s96,43.065,96,96S308.935,352,256,352z
	 M256,200c-30.878,0-56,25.121-56,56s25.122,56,56,56s56-25.121,56-56S286.878,200,256,200z M256,120V80
	c-97.047,0-176,78.953-176,176h40C120,181.01,181.009,120,256,120z M432,256h-40c0,74.99-61.009,136-136,136v40
	C353.047,432,432,353.047,432,256z"/>
<g>
</g>
<g>
</g>
<g>
</g>
<g>
</g>
<g>
</g>
<g>
</g>
<g>
</g>
<g>
</g>
<g>
</g>
<g>
</g>
<g>
</g>
<g>
</g>
<g>
</g>
<g>
</g>
<g>
</g>
</svg>
