<?xml version="1.0" encoding="iso-8859-1"?>
<!-- Generator: Adobe Illustrator 19.0.0, SVG Export Plug-In . SVG Version: 6.00 Build 0)  -->
<svg version="1.1" id="Layer_1" xmlns="http://www.w3.org/2000/svg" xmlns:xlink="http://www.w3.org/1999/xlink" x="0px" y="0px"
	 viewBox="0 0 512 512" style="enable-background:new 0 0 512 512;" xml:space="preserve">
<path d="M384,512H128c-33.084,0-60-26.916-60-60V60c0-33.084,26.916-60,60-60h256c33.084,0,60,26.916,60,60v392
	C444,485.084,417.084,512,384,512z M128,40c-11.028,0-20,8.972-20,20v392c0,11.028,8.972,20,20,20h256c11.028,0,20-8.972,20-20V60
	c0-11.028-8.972-20-20-20H128z M276,412.122L276,412.122c0-11.046-8.954-20-20-20h0c-11.046,0-20,8.954-20,20v0
	c0,11.046,8.954,20,20,20h0C267.046,432.122,276,423.168,276,412.122z M182,320.909V124.466l169.973,98.222L182,320.909z
	 M222,193.778v57.818l50.027-28.909L222,193.778z"/>
<g>
</g>
<g>
</g>
<g>
</g>
<g>
</g>
<g>
</g>
<g>
</g>
<g>
</g>
<g>
</g>
<g>
</g>
<g>
</g>
<g>
</g>
<g>
</g>
<g>
</g>
<g>
</g>
<g>
</g>
</svg>
