<?xml version="1.0" encoding="iso-8859-1"?>
<!-- Generator: Adobe Illustrator 19.0.0, SVG Export Plug-In . SVG Version: 6.00 Build 0)  -->
<svg version="1.1" id="Layer_1" xmlns="http://www.w3.org/2000/svg" xmlns:xlink="http://www.w3.org/1999/xlink" x="0px" y="0px"
	 viewBox="0 0 512.031 512.031" style="enable-background:new 0 0 512.031 512.031;" xml:space="preserve">
<path d="M40,142.388c0,42.786,16.662,83.013,46.917,113.268l-28.284,28.285C20.823,246.13,0,195.859,0,142.388
	C0,88.916,20.823,38.645,58.633,0.834l28.284,28.285C56.662,59.374,40,99.601,40,142.388z M113.332,56.245
	c-48.199,48.199-48.199,126.626,0,174.825l28.284-28.285c-32.603-32.603-32.603-85.652,0-118.255L113.332,56.245z M276,305.461
	v89.956c23.278,8.256,40,30.487,40,56.56c0,33.084-26.916,60-60,60s-60-26.916-60-60c0-26.073,16.722-48.303,40-56.56v-89.956
	c-28.881-8.628-50-35.425-50-67.073V0.054h40v238.334c0,16.542,13.458,30,30,30s30-13.458,30-30V0.054h40v238.334
	C326,270.037,304.881,296.833,276,305.461z M276,451.977c0-11.028-8.972-20-20-20s-20,8.972-20,20s8.972,20,20,20
	S276,463.005,276,451.977z M453.492,0.834l-28.284,28.284c62.456,62.457,62.456,164.081,0,226.538l28.284,28.284
	C531.544,205.888,531.544,78.887,453.492,0.834z M398.792,56.245l-28.284,28.285C386.302,100.324,395,121.323,395,143.659
	c0,22.335-8.698,43.334-24.492,59.127l28.284,28.285C422.141,207.722,435,176.678,435,143.659
	C435,110.638,422.141,79.594,398.792,56.245z"/>
<g>
</g>
<g>
</g>
<g>
</g>
<g>
</g>
<g>
</g>
<g>
</g>
<g>
</g>
<g>
</g>
<g>
</g>
<g>
</g>
<g>
</g>
<g>
</g>
<g>
</g>
<g>
</g>
<g>
</g>
</svg>
