<?xml version="1.0" encoding="iso-8859-1"?>
<!-- Generator: Adobe Illustrator 19.0.0, SVG Export Plug-In . SVG Version: 6.00 Build 0)  -->
<svg version="1.1" id="Layer_1" xmlns="http://www.w3.org/2000/svg" xmlns:xlink="http://www.w3.org/1999/xlink" x="0px" y="0px"
	 viewBox="0 0 512 512" style="enable-background:new 0 0 512 512;" xml:space="preserve">
<path d="M512,256c0,68.38-26.629,132.667-74.98,181.02C388.667,485.371,324.38,512,256,512s-132.667-26.629-181.02-74.98
	C26.629,388.667,0,324.38,0,256h40c0,119.103,96.897,216,216,216s216-96.897,216-216S375.103,40,256,40
	c-77.902,0-148.231,41.146-186.57,107H130v40H0V57h40v61.491c18.471-29.009,42.677-54.093,71.481-73.825
	C154.137,15.445,204.11,0,256,0c68.38,0,132.667,26.629,181.02,74.98C485.371,123.333,512,187.62,512,256z M361.973,256.565
	L192,354.787V158.344L361.973,256.565z M232,285.475l50.027-28.909L232,227.656V285.475z"/>
<g>
</g>
<g>
</g>
<g>
</g>
<g>
</g>
<g>
</g>
<g>
</g>
<g>
</g>
<g>
</g>
<g>
</g>
<g>
</g>
<g>
</g>
<g>
</g>
<g>
</g>
<g>
</g>
<g>
</g>
</svg>
