<?xml version="1.0" encoding="iso-8859-1"?>
<!-- Generator: Adobe Illustrator 19.0.0, SVG Export Plug-In . SVG Version: 6.00 Build 0)  -->
<svg version="1.1" id="Layer_1" xmlns="http://www.w3.org/2000/svg" xmlns:xlink="http://www.w3.org/1999/xlink" x="0px" y="0px"
	 viewBox="0 0 512 512" style="enable-background:new 0 0 512 512;" xml:space="preserve">
<path d="M418.921,290h40V142.856L316.791,0H113.032c-33.084,0-60,26.916-60,60v230h40V60c0-11.028,8.972-20,20-20h174.889v71.111
	c0,33.084,26.916,60,60,60h71V290z M327.921,111.111v-43.21l62.889,63.21h-42.889C336.892,131.111,327.921,122.14,327.921,111.111z
	 M314.826,330h32.206v182h-40v-99.877l-36.254,52.894l-38.746-54.861V512h-40V330h32.36l45.894,64.982L314.826,330z M130.032,330h40
	v82c0,25.244-26.133,74.964-34.143,89.601L130.199,512h-25.334l-5.69-10.399c-2.972-5.431-8.44-15.698-14.143-27.748
	c-5.702,12.05-11.17,22.316-14.143,27.748L65.199,512H39.865l-5.69-10.399C26.165,486.964,0.032,437.244,0.032,412v-82h40v82
	c0,5.983,5.273,20.452,12.5,36.615c7.226-16.162,12.5-30.632,12.5-36.615v-82h40v82c0,5.983,5.273,20.452,12.5,36.615
	c7.226-16.162,12.5-30.632,12.5-36.615V330z M469.655,512h42.313l-57.79-182h-30.446l-58.7,182h42.379l7.849-26h46.675L469.655,512z
	 M427.336,446l11.456-37.948L450.059,446H427.336z"/>
<g>
</g>
<g>
</g>
<g>
</g>
<g>
</g>
<g>
</g>
<g>
</g>
<g>
</g>
<g>
</g>
<g>
</g>
<g>
</g>
<g>
</g>
<g>
</g>
<g>
</g>
<g>
</g>
<g>
</g>
</svg>
