<?xml version="1.0" encoding="iso-8859-1"?>
<!-- Generator: Adobe Illustrator 19.0.0, SVG Export Plug-In . SVG Version: 6.00 Build 0)  -->
<svg version="1.1" id="Layer_1" xmlns="http://www.w3.org/2000/svg" xmlns:xlink="http://www.w3.org/1999/xlink" x="0px" y="0px"
	 viewBox="0 0 512.307 512.307" style="enable-background:new 0 0 512.307 512.307;" xml:space="preserve">
<path d="M433.152,353.602l-14.216,14.068L390.8,339.238l14.215-14.068c39.193-38.786,39.523-102.228,0.736-141.421l-14.068-14.216
	l28.431-28.137l14.068,14.216C488.484,210.483,488.021,299.301,433.152,353.602z M377.32,211.886l-14.068-14.216l-28.431,28.137
	l14.068,14.216c3.758,3.797,5.812,8.83,5.784,14.173c-0.028,5.342-2.134,10.353-5.932,14.11l-14.215,14.068l28.136,28.432
	l14.215-14.068c11.392-11.273,17.711-26.308,17.795-42.334C394.756,238.377,388.593,223.277,377.32,211.886z M133.069,158.894
	L309.699,0v512.307L133.314,350.894h-32.615c-34.149,0-63-27.477-63-60v-72c0-32.523,28.851-60,63-60H133.069z M100.699,310.894h21
	v-112h-21c-11.822,0-23,9.72-23,20v72C77.699,301.174,88.876,310.894,100.699,310.894z M269.699,89.787l-108,97.156v135.706
	l108,98.832V89.787z"/>
<g>
</g>
<g>
</g>
<g>
</g>
<g>
</g>
<g>
</g>
<g>
</g>
<g>
</g>
<g>
</g>
<g>
</g>
<g>
</g>
<g>
</g>
<g>
</g>
<g>
</g>
<g>
</g>
<g>
</g>
</svg>
