<?xml version="1.0" encoding="iso-8859-1"?>
<!-- Generator: Adobe Illustrator 19.0.0, SVG Export Plug-In . SVG Version: 6.00 Build 0)  -->
<svg version="1.1" id="Layer_1" xmlns="http://www.w3.org/2000/svg" xmlns:xlink="http://www.w3.org/1999/xlink" x="0px" y="0px"
	 viewBox="0 0 512.238 512.238" style="enable-background:new 0 0 512.238 512.238;" xml:space="preserve">
<path d="M104.25,341.95l65,66l-28.5,28.068l-65-66L104.25,341.95z M501.984,59.975l-50.261,50.252l-26.875,5.671l-85.005,85.001
	c2.772,38.084,8.589,189.615-66.143,264.348c-31.176,31.176-72.205,46.769-113.26,46.769c-41.045,0-82.116-15.573-113.442-46.729
	C16.691,435.143,0,395.058,0,352.414s16.691-82.729,46.998-112.872c75.26-74.853,222.241-69.274,263.67-66.036l85.226-85.221
	l6.338-27.562l50.26-50.252c13.67-13.667,35.832-13.665,49.498,0.006h0C515.657,24.147,515.654,46.308,501.984,59.975z
	 M301.147,239.593l-45.186,45.183c3.864,7.924,6.038,16.816,6.038,26.208c0,33.084-26.916,60-60,60s-60-26.916-60-60
	s26.916-60,60-60c9.109,0,17.746,2.05,25.487,5.698l44.641-44.638c-1.316-0.009-2.648-0.015-4.005-0.015
	c-55.607,0-144.959,8.175-192.917,55.874C52.503,290.482,40,320.496,40,352.414s12.503,61.932,35.205,84.511
	c47.063,46.81,123.419,46.828,170.211,0.038C293.791,388.588,301.292,294.666,301.147,239.593z M202,290.984
	c-11.028,0-20,8.972-20,20s8.972,20,20,20s20-8.972,20-20S213.028,290.984,202,290.984z"/>
<g>
</g>
<g>
</g>
<g>
</g>
<g>
</g>
<g>
</g>
<g>
</g>
<g>
</g>
<g>
</g>
<g>
</g>
<g>
</g>
<g>
</g>
<g>
</g>
<g>
</g>
<g>
</g>
<g>
</g>
</svg>
