<?xml version="1.0" encoding="iso-8859-1"?>
<!-- Generator: Adobe Illustrator 19.0.0, SVG Export Plug-In . SVG Version: 6.00 Build 0)  -->
<svg version="1.1" id="Layer_1" xmlns="http://www.w3.org/2000/svg" xmlns:xlink="http://www.w3.org/1999/xlink" x="0px" y="0px"
	 viewBox="0 0 512 512" style="enable-background:new 0 0 512 512;" xml:space="preserve">
<path d="M316.814,0H113.056c-33.084,0-60,26.916-60,60v392c0,33.084,26.916,60,60,60h285.889c33.084,0,60-26.916,60-60V142.856
	L316.814,0z M327.944,67.9l62.89,63.211h-42.89c-11.028,0-20-8.972-20-20V67.9z M398.944,472H113.056c-11.028,0-20-8.972-20-20V60
	c0-11.028,8.972-20,20-20h174.889v71.111c0,33.084,26.916,60,60,60h71V452C418.944,463.028,409.973,472,398.944,472z
	 M292.717,241.43L322.056,225v45l-10.59,6.766c-1.841,0.981-15.346,7.882-36.41,10.92V373c0,23.748-19.252,43-43,43
	s-43-19.252-43-43s19.252-43,43-43c1.01,0,2.008,0.047,3,0.116v-80.999h20C276.647,249.117,291.55,242.004,292.717,241.43z"/>
<g>
</g>
<g>
</g>
<g>
</g>
<g>
</g>
<g>
</g>
<g>
</g>
<g>
</g>
<g>
</g>
<g>
</g>
<g>
</g>
<g>
</g>
<g>
</g>
<g>
</g>
<g>
</g>
<g>
</g>
</svg>
