<?xml version="1.0" encoding="iso-8859-1"?>
<!-- Generator: Adobe Illustrator 19.0.0, SVG Export Plug-In . SVG Version: 6.00 Build 0)  -->
<svg version="1.1" id="Layer_1" xmlns="http://www.w3.org/2000/svg" xmlns:xlink="http://www.w3.org/1999/xlink" x="0px" y="0px"
	 viewBox="0 0 512.035 512.035" style="enable-background:new 0 0 512.035 512.035;" xml:space="preserve">
<linearGradient id="SVGID_1_" gradientUnits="userSpaceOnUse" x1="256.0176" y1="0.0566" x2="256.0176" y2="511.9785">
	<stop  offset="0" style="stop-color:#2AF598"/>
	<stop  offset="1" style="stop-color:#009EFD"/>
</linearGradient>
<path style="fill:url(#SVGID_1_);" d="M295.652,40.342C262.391,13.611,215.451,0.057,156.135,0.057
	c-45.055,0-85.48,17.185-113.829,48.389C15.282,78.193,0.304,119.398,0.047,164.58c-0.001,0.16-0.012,0.317-0.012,0.477
	c0,0.068,0.005,0.134,0.005,0.202c0,0.166-0.005,0.332-0.005,0.498h0.018c0.378,32.761,27.133,59.3,59.982,59.3
	c33.084,0,60-26.916,60-60s-26.916-60-60-60c-2.593,0-5.142,0.184-7.649,0.504c16.286-35.685,47.624-59.488,87.649-64.509v0.005
	c27.295,0,48.632,10.231,63.417,30.409c14.773,20.162,22.583,49.31,22.583,84.292c0,96.487-60.634,177.835-111.5,229.087
	C58.054,441.753,0.574,475.423,0,475.756l10.035,17.3l6.478,18.922c45.655-15.629,133.144-51.149,206.13-113.433
	c37.352-31.875,66.689-67.16,87.197-104.875c24.018-44.17,36.195-92.152,36.195-142.613
	C346.035,105.117,328.613,66.833,295.652,40.342z M60.035,145.057c11.028,0,20,8.972,20,20s-8.972,20-20,20
	c-10.989,0-19.931-8.91-19.994-19.884c0-0.097,0.002-0.193,0.003-0.291C40.139,153.935,49.066,145.057,60.035,145.057z
	 M155.617,399.831c29.404-31.508,53.297-64.153,71.146-97.25c26.059-48.319,39.272-97.718,39.272-146.825
	c0-40.318-8.995-75.297-26.071-101.746c11.696,4.697,21.965,10.546,30.63,17.51c23.517,18.9,35.441,45.66,35.441,79.536
	C306.035,266.835,233.807,346.988,155.617,399.831z M452.035,145.057c33.084,0,60-26.916,60-60s-26.916-60-60-60s-60,26.916-60,60
	S418.951,145.057,452.035,145.057z M452.035,65.057c11.028,0,20,8.972,20,20s-8.972,20-20,20s-20-8.972-20-20
	S441.007,65.057,452.035,65.057z M452.035,185.057c-33.084,0-60,26.916-60,60s26.916,60,60,60s60-26.916,60-60
	S485.119,185.057,452.035,185.057z M452.035,265.057c-11.028,0-20-8.972-20-20s8.972-20,20-20s20,8.972,20,20
	S463.063,265.057,452.035,265.057z"/>
<g>
</g>
<g>
</g>
<g>
</g>
<g>
</g>
<g>
</g>
<g>
</g>
<g>
</g>
<g>
</g>
<g>
</g>
<g>
</g>
<g>
</g>
<g>
</g>
<g>
</g>
<g>
</g>
<g>
</g>
</svg>
