<?xml version="1.0" encoding="iso-8859-1"?>
<!-- Generator: Adobe Illustrator 19.0.0, SVG Export Plug-In . SVG Version: 6.00 Build 0)  -->
<svg version="1.1" id="Layer_1" xmlns="http://www.w3.org/2000/svg" xmlns:xlink="http://www.w3.org/1999/xlink" x="0px" y="0px"
	 viewBox="0 0 512 512" style="enable-background:new 0 0 512 512;" xml:space="preserve">
<linearGradient id="SVGID_1_" gradientUnits="userSpaceOnUse" x1="256" y1="-2.713023e-009" x2="256" y2="512">
	<stop  offset="0" style="stop-color:#2AF598"/>
	<stop  offset="1" style="stop-color:#009EFD"/>
</linearGradient>
<path style="fill:url(#SVGID_1_);" d="M130.18,283.731L76.257,512h392.395L349.33,0H195.58l-22.234,95.406
	c13.508,6.334,25.381,15.597,34.786,26.974L227.33,40h90.25l72.712,312h-97.837v-40h40v-40h-40v-40h40v-40h-40V91h-40v221.545
	l-71.171-93.816c6.157-9.42,9.751-20.66,9.751-32.729c0-33.084-26.916-60-60-60c-6.27,0-12.316,0.971-18.001,2.763l-37.818-49.85
	l-31.867,24.176l37.728,49.731c-6.338,9.511-10.042,20.92-10.042,33.181c0,33.084,26.916,60,60,60
	c6.456,0,12.672-1.037,18.504-2.933L232.178,352h-77.561l6.428-27.582L130.18,283.731z M111.035,186c0-11.028,8.972-20,20-20
	s20,8.972,20,20s-8.972,20-20,20S111.035,197.028,111.035,186z M399.613,392l18.644,80H126.652l18.644-80H399.613z"/>
<g>
</g>
<g>
</g>
<g>
</g>
<g>
</g>
<g>
</g>
<g>
</g>
<g>
</g>
<g>
</g>
<g>
</g>
<g>
</g>
<g>
</g>
<g>
</g>
<g>
</g>
<g>
</g>
<g>
</g>
</svg>
