<?xml version="1.0" encoding="iso-8859-1"?>
<!-- Generator: Adobe Illustrator 19.0.0, SVG Export Plug-In . SVG Version: 6.00 Build 0)  -->
<svg version="1.1" id="Layer_1" xmlns="http://www.w3.org/2000/svg" xmlns:xlink="http://www.w3.org/1999/xlink" x="0px" y="0px"
	 viewBox="0 0 512 512" style="enable-background:new 0 0 512 512;" xml:space="preserve">
<linearGradient id="SVGID_1_" gradientUnits="userSpaceOnUse" x1="256" y1="-6.779374e-009" x2="256" y2="512">
	<stop  offset="0" style="stop-color:#2AF598"/>
	<stop  offset="1" style="stop-color:#009EFD"/>
</linearGradient>
<path style="fill:url(#SVGID_1_);" d="M183.921,82.346C159.408,14.286,127.474,0,105,0S50.592,14.286,26.079,82.346
	C9.262,129.039,0,190.71,0,256s9.262,126.961,26.079,173.654C50.592,497.714,82.526,512,105,512s54.408-14.286,78.921-82.346
	C200.738,382.961,210,321.29,210,256S200.738,129.039,183.921,82.346z M146.287,416.1C131.427,457.36,114.759,472,105,472
	s-26.427-14.64-41.287-55.9C48.421,373.644,40,316.786,40,256s8.421-117.644,23.713-160.1C78.573,54.64,95.241,40,105,40
	s26.427,14.64,41.287,55.9C161.579,138.356,170,195.214,170,256S161.579,373.644,146.287,416.1z M125,256c0,30.376-8.954,55-20,55
	s-20-24.624-20-55s8.954-55,20-55S125,225.624,125,256z M236,256c0-30.376,8.954-55,20-55s20,24.624,20,55s-8.954,55-20,55
	S236,286.376,236,256z M387,256c0-30.376,8.954-55,20-55s20,24.624,20,55s-8.954,55-20,55S387,286.376,387,256z M361,256
	c0,65.29-9.262,126.961-26.079,173.654C310.408,497.714,278.474,512,256,512c-14.777,0-33.644-6.179-51.802-29.756
	c6.379-11.629,12.181-24.666,17.356-39.035c0.692-1.923,1.369-3.875,2.038-5.841C235.841,462.522,248.154,472,256,472
	c9.759,0,26.427-14.64,41.287-55.9C312.579,373.644,321,316.786,321,256s-8.421-117.644-23.713-160.1
	C282.427,54.64,265.759,40,256,40c-7.846,0-20.159,9.478-32.407,34.632c-0.669-1.966-1.346-3.919-2.038-5.841
	c-5.175-14.369-10.977-27.406-17.356-39.035C222.356,6.179,241.223,0,256,0c22.474,0,54.408,14.286,78.921,82.346
	C351.738,129.039,361,190.71,361,256z M512,256c0,65.29-9.262,126.961-26.079,173.654C461.408,497.714,429.474,512,407,512
	c-14.76,0-33.601-6.163-51.74-29.674c6.301-11.548,12.048-24.552,17.294-39.117c0.692-1.923,1.369-3.875,2.038-5.841
	C386.841,462.522,399.154,472,407,472c9.759,0,26.427-14.64,41.287-55.9C463.579,373.644,472,316.786,472,256
	s-8.421-117.644-23.713-160.1C433.427,54.64,416.759,40,407,40c-7.846,0-20.159,9.478-32.407,34.632
	c-0.669-1.966-1.346-3.918-2.038-5.841c-5.246-14.565-10.994-27.569-17.294-39.117C373.399,6.163,392.24,0,407,0
	c22.474,0,54.408,14.286,78.921,82.346C502.738,129.039,512,190.71,512,256z"/>
<g>
</g>
<g>
</g>
<g>
</g>
<g>
</g>
<g>
</g>
<g>
</g>
<g>
</g>
<g>
</g>
<g>
</g>
<g>
</g>
<g>
</g>
<g>
</g>
<g>
</g>
<g>
</g>
<g>
</g>
</svg>
