<?xml version="1.0" encoding="iso-8859-1"?>
<!-- Generator: Adobe Illustrator 19.0.0, SVG Export Plug-In . SVG Version: 6.00 Build 0)  -->
<svg version="1.1" id="Layer_1" xmlns="http://www.w3.org/2000/svg" xmlns:xlink="http://www.w3.org/1999/xlink" x="0px" y="0px"
	 viewBox="0 0 512.001 512.001" style="enable-background:new 0 0 512.001 512.001;" xml:space="preserve">
<linearGradient id="SVGID_1_" gradientUnits="userSpaceOnUse" x1="256.0004" y1="12.9934" x2="256.0004" y2="499.0075">
	<stop  offset="0" style="stop-color:#2AF598"/>
	<stop  offset="1" style="stop-color:#009EFD"/>
</linearGradient>
<path style="fill:url(#SVGID_1_);" d="M458.46,12.993L285.37,186.25c-3.391-27.446,11.733-58.266,23.043-76.864
	c6.58-10.82,6.218-24.03-0.945-34.477c-7.153-10.432-19.324-15.521-31.768-13.287c-21.293,3.825-51.708,13.417-75.682,37.39
	c-13.045,13.046-21.069,31.385-28.149,47.565c-5.152,11.773-10.479,23.948-15.734,29.003l-0.276,0.271
	c-16.118,16.119-37.669,21.684-60.484,27.576c-22.647,5.848-46.066,11.895-63.401,29.231c-21.03,21.021-32.086,46.754-31.972,74.417
	c0.167,40.56,23.267,84.15,66.812,126.083c40.776,42.342,83.589,65.105,123.827,65.832c0.644,0.012,1.284,0.018,1.926,0.018
	c27.938,0,53.716-11.034,74.652-31.98c17.212-17.211,22.905-39.978,28.411-61.995c5.726-22.893,11.133-44.516,28.515-61.897
	l0.271-0.276c2.937-3.052,11.523-7.243,19.099-10.941c18.067-8.818,40.552-19.792,54.834-42.163
	c5.852-9.167,6.196-20.773,0.898-30.289c-5.306-9.528-15.409-15.37-26.259-15.209c-17.615,0.226-42.564-2.134-66.662-22.386
	L475.04,52.993h36.961v-40H458.46z M373.521,284.253L373.521,284.253c-0.004,0-0.008,0-0.012,0
	C373.514,284.254,373.517,284.253,373.521,284.253z M323.765,277.048c9.211,3.106,17.958,4.912,25.862,5.941
	c-7.201,4.949-15.506,9.003-23.659,12.982c-11.514,5.62-22.394,10.931-30.231,19.003c-25.116,25.191-32.765,55.773-38.912,80.354
	c-4.567,18.264-8.512,34.038-17.894,43.418c-13.947,13.953-29.522,20.555-47.568,20.25c-29.041-0.525-63.128-19.646-95.981-53.839
	l-0.565-0.565c-35.228-33.847-54.695-68.538-54.814-97.682c-0.07-16.998,6.742-32.461,20.253-45.965
	c9.622-9.623,26.072-13.87,45.121-18.789c25.703-6.637,54.827-14.157,78.64-37.893c10.895-10.559,17.504-25.665,24.5-41.652
	c5.938-13.572,12.079-27.606,19.789-35.316c10.9-10.901,24.168-17.599,36.428-21.714c-21.769,42.615-25.714,81.631-11.516,112.854
	l-34.306,34.339l-18.716-18.866l-28.396,28.171l65.006,65.527l28.396-28.171l-18.118-18.264l30.887-30.917
	C291.75,262.433,307.087,271.422,323.765,277.048z M143.199,290.381l65.006,65.527l-28.396,28.171l-65.006-65.527L143.199,290.381z"
	/>
<g>
</g>
<g>
</g>
<g>
</g>
<g>
</g>
<g>
</g>
<g>
</g>
<g>
</g>
<g>
</g>
<g>
</g>
<g>
</g>
<g>
</g>
<g>
</g>
<g>
</g>
<g>
</g>
<g>
</g>
</svg>
