<?xml version="1.0" encoding="iso-8859-1"?>
<!-- Generator: Adobe Illustrator 19.0.0, SVG Export Plug-In . SVG Version: 6.00 Build 0)  -->
<svg version="1.1" id="Layer_1" xmlns="http://www.w3.org/2000/svg" xmlns:xlink="http://www.w3.org/1999/xlink" x="0px" y="0px"
	 viewBox="0 0 512 512" style="enable-background:new 0 0 512 512;" xml:space="preserve">
<linearGradient id="SVGID_1_" gradientUnits="userSpaceOnUse" x1="256" y1="-6.314622e-009" x2="256" y2="512">
	<stop  offset="0" style="stop-color:#2AF598"/>
	<stop  offset="1" style="stop-color:#009EFD"/>
</linearGradient>
<path style="fill:url(#SVGID_1_);" d="M396.664,201c-25.062,0-47.793-12.152-61.664-32.011v54.13
	c18.479,11.703,39.717,17.88,61.665,17.88c41.54,0,75.335,33.795,75.335,75.335V348H40V115.335C40,73.795,73.795,40,115.335,40
	h72.001c20.078,0,38.657,7.688,52.387,21H255h34.137c-8.78-16.52-21.418-30.505-37.059-41.115C232.898,6.876,210.511,0,187.336,0
	h-72.001C51.739,0,0,51.739,0,115.335V512h512V316.335C512,252.739,460.261,201,396.664,201z M40,472v-84h38v50h40v-50h39v50h40v-50
	h39v50h40v-50h39v50h40v-50h40v50h40v-50h37v84H40z M512,0v45.552l-3.59,2.294c-1.841,0.981-15.346,7.882-36.41,10.92v65.314
	c0,23.748-19.252,43-43,43s-43-19.252-43-43s19.252-43,43-43c1.01,0,2.008,0.047,3,0.116V20.197h20
	c21.591,0,36.494-7.113,37.661-7.688L512,0z M275,101.117c21.591,0,36.494-7.113,37.661-7.688L342,77v45l-10.59,6.766
	c-1.841,0.981-15.346,7.882-36.41,10.92V225c0,23.748-19.252,43-43,43s-43-19.252-43-43s19.252-43,43-43c1.01,0,2.008,0.047,3,0.116
	v-80.999H275z"/>
<g>
</g>
<g>
</g>
<g>
</g>
<g>
</g>
<g>
</g>
<g>
</g>
<g>
</g>
<g>
</g>
<g>
</g>
<g>
</g>
<g>
</g>
<g>
</g>
<g>
</g>
<g>
</g>
<g>
</g>
</svg>
