<?xml version="1.0" encoding="iso-8859-1"?>
<!-- Generator: Adobe Illustrator 19.0.0, SVG Export Plug-In . SVG Version: 6.00 Build 0)  -->
<svg version="1.1" id="Layer_1" xmlns="http://www.w3.org/2000/svg" xmlns:xlink="http://www.w3.org/1999/xlink" x="0px" y="0px"
	 viewBox="0 0 512 512" style="enable-background:new 0 0 512 512;" xml:space="preserve">
<linearGradient id="SVGID_1_" gradientUnits="userSpaceOnUse" x1="256" y1="0" x2="256" y2="512">
	<stop  offset="0" style="stop-color:#2AF598"/>
	<stop  offset="1" style="stop-color:#009EFD"/>
</linearGradient>
<path style="fill:url(#SVGID_1_);" d="M488.375,304.565c-4.842-6.72-10.323-12.588-16.375-17.593L472,216
	c0-57.696-22.468-111.938-63.265-152.735C367.938,22.468,313.695,0,256,0c-57.695,0-111.938,22.468-152.735,63.265
	C62.468,104.062,40,158.304,40,216v71.549C14.668,308.599,0,344.001,0,389c0,74.72,40.43,123,103,123h37V266h-37
	c-8.047,0-15.724,0.804-23,2.355V216c0-97.047,78.953-176,176-176c97.046,0,176,78.953,176,176l0,52.14
	c-6.989-1.414-14.331-2.139-22-2.139h-38v246h38c33.096,0,60.198-13.335,78.375-38.565C503.831,451.983,512,422.787,512,389
	S503.831,326.017,488.375,304.565z M100,471.945c-54.077-2.01-60-58.436-60-82.945s5.923-80.935,60-82.945V471.945z M412,471.975
	v-165.95c54.106,1.366,60,58.319,60,82.975S466.106,470.609,412,471.975z M292.661,317.43L322,301v45l-10.59,6.766
	c-1.841,0.981-15.346,7.882-36.41,10.92V449c0,23.748-19.252,43-43,43s-43-19.252-43-43s19.252-43,43-43c1.01,0,2.008,0.047,3,0.116
	v-80.999h20C276.591,325.117,291.494,318.004,292.661,317.43z"/>
<g>
</g>
<g>
</g>
<g>
</g>
<g>
</g>
<g>
</g>
<g>
</g>
<g>
</g>
<g>
</g>
<g>
</g>
<g>
</g>
<g>
</g>
<g>
</g>
<g>
</g>
<g>
</g>
<g>
</g>
</svg>
