<?xml version="1.0" encoding="iso-8859-1"?>
<!-- Generator: Adobe Illustrator 19.0.0, SVG Export Plug-In . SVG Version: 6.00 Build 0)  -->
<svg version="1.1" id="Layer_1" xmlns="http://www.w3.org/2000/svg" xmlns:xlink="http://www.w3.org/1999/xlink" x="0px" y="0px"
	 viewBox="0 0 512.238 512.238" style="enable-background:new 0 0 512.238 512.238;" xml:space="preserve">
<linearGradient id="SVGID_1_" gradientUnits="userSpaceOnUse" x1="256.1191" y1="0.2349" x2="256.1191" y2="512.0034">
	<stop  offset="0" style="stop-color:#2AF598"/>
	<stop  offset="1" style="stop-color:#009EFD"/>
</linearGradient>
<path style="fill:url(#SVGID_1_);" d="M451.724,110.24l60.515-60.501L462.746,0.235l-60.515,60.501l2.63,18.595l-152.53,152.523
	c-26.498-20.583-59.755-32.857-95.828-32.857C70.207,198.997,0,269.204,0,355.5c0,36.075,12.275,69.333,32.859,95.831L3.094,481.086
	l28.279,28.289l29.832-29.822c26.411,20.337,59.464,32.451,95.298,32.451c86.296,0,156.503-70.207,156.503-156.503
	c0-35.835-12.115-68.889-32.453-95.3l152.907-152.9L451.724,110.24z M273.007,355.5c0,64.24-52.263,116.503-116.503,116.503
	S40,419.74,40,355.5s52.263-116.503,116.503-116.503c25.033,0,48.246,7.938,67.258,21.426l-73.526,73.522l-29.088-29.09
	l-28.285,28.283l86.466,86.473l28.285-28.283l-29.095-29.097l73.443-73.439C265.216,307.7,273.007,330.706,273.007,355.5z"/>
<g>
</g>
<g>
</g>
<g>
</g>
<g>
</g>
<g>
</g>
<g>
</g>
<g>
</g>
<g>
</g>
<g>
</g>
<g>
</g>
<g>
</g>
<g>
</g>
<g>
</g>
<g>
</g>
<g>
</g>
</svg>
