<?xml version="1.0" encoding="iso-8859-1"?>
<!-- Generator: Adobe Illustrator 19.0.0, SVG Export Plug-In . SVG Version: 6.00 Build 0)  -->
<svg version="1.1" id="Layer_1" xmlns="http://www.w3.org/2000/svg" xmlns:xlink="http://www.w3.org/1999/xlink" x="0px" y="0px"
	 viewBox="0 0 512.306 512.306" style="enable-background:new 0 0 512.306 512.306;" xml:space="preserve">
<linearGradient id="SVGID_1_" gradientUnits="userSpaceOnUse" x1="256.1531" y1="4.199137e-009" x2="256.1531" y2="512.3062">
	<stop  offset="0" style="stop-color:#2AF598"/>
	<stop  offset="1" style="stop-color:#009EFD"/>
</linearGradient>
<path style="fill:url(#SVGID_1_);" d="M416.859,296.737l-14.216,14.068l-28.137-28.431l14.216-14.068
	c7.839-7.758,7.904-20.446,0.147-28.285l-14.068-14.216l28.433-28.136l14.067,14.216
	C440.573,235.402,440.374,273.466,416.859,296.737z M173.05,158.894L349.68,0v512.306L173.294,350.894H140.68
	c-34.149,0-63-27.477-63-60v-72c0-32.523,28.851-60,63-60H173.05z M140.68,310.894h21v-112h-21c-11.822,0-23,9.72-23,20v72
	C117.68,301.174,128.858,310.894,140.68,310.894z M309.68,89.787l-108,97.155v135.707l108,98.832V89.787z"/>
<g>
</g>
<g>
</g>
<g>
</g>
<g>
</g>
<g>
</g>
<g>
</g>
<g>
</g>
<g>
</g>
<g>
</g>
<g>
</g>
<g>
</g>
<g>
</g>
<g>
</g>
<g>
</g>
<g>
</g>
</svg>
