<?xml version="1.0" encoding="iso-8859-1"?>
<!-- Generator: Adobe Illustrator 19.0.0, SVG Export Plug-In . SVG Version: 6.00 Build 0)  -->
<svg version="1.1" id="Layer_1" xmlns="http://www.w3.org/2000/svg" xmlns:xlink="http://www.w3.org/1999/xlink" x="0px" y="0px"
	 viewBox="0 0 512.048 512.048" style="enable-background:new 0 0 512.048 512.048;" xml:space="preserve">
<linearGradient id="SVGID_1_" gradientUnits="userSpaceOnUse" x1="256.0239" y1="-4.954927e-009" x2="256.0239" y2="512.0479">
	<stop  offset="0" style="stop-color:#2AF598"/>
	<stop  offset="1" style="stop-color:#009EFD"/>
</linearGradient>
<path style="fill:url(#SVGID_1_);" d="M469.265,33.651l31.179-33.603h-306.84L145.643,0l33.694,34.065
	c0.214,0.219,21.601,22.387,42.68,65.819c8.336,17.176,17.359,39.297,24.945,66.164h-38.775c-12.634-41.065-50.929-71-96.083-71
	c-55.416,0-100.5,45.084-100.5,100.5v125c0,51.506,17.938,99.381,50.509,134.806c33.614,36.56,80.135,56.694,130.991,56.694
	c52.563,0,100.507-17.942,135.002-50.522c36.961-34.91,56.498-83.659,56.498-140.978v-22.5c0-33.932,3.356-64.678,8.571-92h53.429
	v-40h-43.932c7.411-25.94,16.125-47.604,24.196-64.614C447.823,57.268,469.09,33.842,469.265,33.651z M256.298,206.048
	c1.783,9.56,3.333,19.569,4.602,30h-48.296v-30H256.298z M264.604,297.9l-0.124,8.147h-51.953c0.049-0.994,0.076-1.994,0.076-3v-27
	h51.537C264.437,283.172,264.602,290.45,264.604,297.9z M51.604,276.048v-80.5c0-33.36,27.141-60.5,60.5-60.5
	c22.656,0,42.443,12.518,52.809,31h-12.309c-33.084,0-60,26.916-60,60v77c0,33.084,26.916,60,60,60c16.233,0,30.972-6.49,41.784-17
	h68.586c-5.457,35.828-30.911,68-80.37,68C99.352,414.048,51.604,363.749,51.604,276.048z M172.604,206.048v97
	c0,11.028-8.972,20-20,20s-20-8.972-20-20v-77c0-11.028,8.972-20,20-20H172.604z M391.574,82.518
	c-21.428,44.64-46.97,118.269-46.97,215.53v22.5c0,104.655-76.091,151.5-151.5,151.5c-36.321,0-68.618-13.201-93.154-35.603
	c23.93,11.603,51.828,17.603,82.654,17.603c47.694,0,76.239-21.54,91.786-39.609c19.13-22.234,29.679-51.789,29.714-83.236
	l0.498-32.852l0.002-0.303c0-99.927-25.86-173.475-47.554-217.578c-7.906-16.073-15.854-29.548-22.989-40.422H415.11
	C407.865,51.403,399.703,65.583,391.574,82.518z"/>
<g>
</g>
<g>
</g>
<g>
</g>
<g>
</g>
<g>
</g>
<g>
</g>
<g>
</g>
<g>
</g>
<g>
</g>
<g>
</g>
<g>
</g>
<g>
</g>
<g>
</g>
<g>
</g>
<g>
</g>
</svg>
