<?xml version="1.0" encoding="iso-8859-1"?>
<!-- Generator: Adobe Illustrator 19.0.0, SVG Export Plug-In . SVG Version: 6.00 Build 0)  -->
<svg version="1.1" id="Layer_1" xmlns="http://www.w3.org/2000/svg" xmlns:xlink="http://www.w3.org/1999/xlink" x="0px" y="0px"
	 viewBox="0 0 512 512" style="enable-background:new 0 0 512 512;" xml:space="preserve">
<linearGradient id="SVGID_1_" gradientUnits="userSpaceOnUse" x1="256" y1="0" x2="256" y2="512">
	<stop  offset="0" style="stop-color:#2AF598"/>
	<stop  offset="1" style="stop-color:#009EFD"/>
</linearGradient>
<path style="fill:url(#SVGID_1_);" d="M256,512c-89.281,0-141.599-9.293-174.938-31.075C39.591,453.833,34,410.659,34,372
	c0-30.273,7.424-68.682,21.468-111.074c13.117-39.593,31.243-80.701,52.417-118.879c21.93-39.541,45.7-73.232,68.739-97.433
	C204.81,15.011,231.515,0,256,0s51.19,15.011,79.376,44.615c23.039,24.2,46.81,57.892,68.739,97.433
	c21.174,38.178,39.3,79.286,52.417,118.879C470.576,303.318,478,341.727,478,372c0,38.659-5.591,81.833-47.062,108.925
	C397.599,502.707,345.281,512,256,512z M256,40c-22.786,0-66.605,37.553-113.135,121.448C101.031,236.877,74,319.523,74,372
	c0,40.682,8.113,61.833,28.938,75.438C128.588,464.195,177.225,472,256,472s127.412-7.805,153.062-24.562
	C429.887,433.833,438,412.682,438,372c0-52.477-27.031-135.123-68.865-210.552C322.605,77.553,278.786,40,256,40z M155.643,391.78
	C155.474,391.231,154,386.013,154,372c0-7.526,1.304-24.751,10.039-55.542c6.166-21.738,17.994-56.435,39.321-98.278l-35.639-18.164
	c-18.043,35.399-32.623,71.89-42.165,105.526C117.996,332.195,114,355.176,114,372c0,13.539,1.143,24.134,3.395,31.491
	L155.643,391.78z"/>
<g>
</g>
<g>
</g>
<g>
</g>
<g>
</g>
<g>
</g>
<g>
</g>
<g>
</g>
<g>
</g>
<g>
</g>
<g>
</g>
<g>
</g>
<g>
</g>
<g>
</g>
<g>
</g>
<g>
</g>
</svg>
