<?xml version="1.0" encoding="iso-8859-1"?>
<!-- Generator: Adobe Illustrator 19.0.0, SVG Export Plug-In . SVG Version: 6.00 Build 0)  -->
<svg version="1.1" id="Layer_1" xmlns="http://www.w3.org/2000/svg" xmlns:xlink="http://www.w3.org/1999/xlink" x="0px" y="0px"
	 viewBox="0 0 512 512" style="enable-background:new 0 0 512 512;" xml:space="preserve">
<linearGradient id="SVGID_1_" gradientUnits="userSpaceOnUse" x1="256" y1="-8.799361e-009" x2="256" y2="512">
	<stop  offset="0" style="stop-color:#2AF598"/>
	<stop  offset="1" style="stop-color:#009EFD"/>
</linearGradient>
<path style="fill:url(#SVGID_1_);" d="M452,0H60C26.916,0,0,26.916,0,60v272c0,33.084,26.916,60,60,60h15
	c27.304,0,50.391-18.34,57.629-43.343C139.548,351.448,147.094,353,155,353h15c27.958,0,51.507-19.222,58.136-45.143
	c6.78,2.663,14.15,4.143,21.864,4.143h14c27.631,0,50.946-18.78,57.885-44.242C328.734,270.485,336.191,272,344,272h15
	c27.631,0,50.946-18.78,57.885-44.242C423.734,230.485,431.191,232,439,232h13c33.084,0,60-26.916,60-60V60
	C512,26.916,485.084,0,452,0z M95,332c0,11.028-8.972,20-20,20H60c-11.028,0-20-8.972-20-20V60c0-11.028,8.972-20,20-20h35v40
	c-11.046,0-20,8.954-20,20c0,11.046,8.954,20,20,20v151c-11.046,0-20,8.954-20,20c0,11.046,8.954,20,20,20V332z M170,313h-15
	c-11.028,0-20-8.972-20-20V40h55v40.05c-10.578,0.524-19,9.241-19,19.95c0,10.708,8.422,19.425,19,19.95V232.05
	c-10.578,0.524-19,9.241-19,19.95c0,10.708,8.422,19.425,19,19.95V293C190,304.028,181.028,313,170,313z M264,272h-14
	c-11.028,0-20-8.972-20-20V40h54v40.05c-10.578,0.524-19,9.241-19,19.95c0,10.708,8.422,19.425,19,19.95v71.101
	c-10.578,0.524-19,9.241-19,19.95c0,10.708,8.422,19.425,19,19.95V252C284,263.028,275.028,272,264,272z M379,212
	c0,11.028-8.972,20-20,20h-15c-11.028,0-20-8.972-20-20V40h55v40c-11.046,0-20,8.954-20,20c0,11.046,8.954,20,20,20v30
	c-11.046,0-20,8.954-20,20c0,11.046,8.954,20,20,20V212z M472,172c0,11.028-8.972,20-20,20h-13c-11.028,0-20-8.972-20-20V40h33
	c11.028,0,20,8.972,20,20v20c-11.046,0-20,8.954-20,20c0,11.046,8.954,20,20,20V172z M452,392c-26.444,0-48.931,17.203-56.899,41H0
	v40h395.801c8.532,22.756,30.5,39,56.199,39c33.084,0,60-26.916,60-60S485.084,392,452,392z M452,472c-11.028,0-20-8.972-20-20
	s8.972-20,20-20s20,8.972,20,20S463.028,472,452,472z"/>
<g>
</g>
<g>
</g>
<g>
</g>
<g>
</g>
<g>
</g>
<g>
</g>
<g>
</g>
<g>
</g>
<g>
</g>
<g>
</g>
<g>
</g>
<g>
</g>
<g>
</g>
<g>
</g>
<g>
</g>
</svg>
