<?xml version="1.0" encoding="iso-8859-1"?>
<!-- Generator: Adobe Illustrator 19.0.0, SVG Export Plug-In . SVG Version: 6.00 Build 0)  -->
<svg version="1.1" id="Layer_1" xmlns="http://www.w3.org/2000/svg" xmlns:xlink="http://www.w3.org/1999/xlink" x="0px" y="0px"
	 viewBox="0 0 512.281 512.281" style="enable-background:new 0 0 512.281 512.281;" xml:space="preserve">
<linearGradient id="SVGID_1_" gradientUnits="userSpaceOnUse" x1="256.1405" y1="0.2221" x2="256.1405" y2="512.059">
	<stop  offset="0" style="stop-color:#2AF598"/>
	<stop  offset="1" style="stop-color:#009EFD"/>
</linearGradient>
<path style="fill:url(#SVGID_1_);" d="M451.766,110.227l60.515-60.501L462.789,0.222l-60.515,60.501l2.63,18.593l-91.583,91.575
	L42.929,231.482c-19.846,4.517-35.061,18.888-40.702,38.444c-5.641,19.556-0.416,39.823,13.976,54.215l171.715,171.715
	c10.578,10.578,24.327,16.204,38.637,16.203c5.16,0,10.395-0.731,15.577-2.227c19.556-5.641,33.927-20.855,38.441-40.687
	l61.843-270.782l91.086-91.077L451.766,110.227z M241.574,460.254c-1.783,7.833-7.956,10.403-10.527,11.145
	c-2.57,0.742-9.164,1.854-14.844-3.826L44.487,295.856c-5.68-5.68-4.568-12.273-3.827-14.845c0.742-2.57,3.312-8.743,11.08-10.512
	l245.748-55.069L241.574,460.254z M154.043,319.984c0-22.091,17.909-40,40-40s40,17.909,40,40c0,22.091-17.909,40-40,40
	S154.043,342.075,154.043,319.984z"/>
<g>
</g>
<g>
</g>
<g>
</g>
<g>
</g>
<g>
</g>
<g>
</g>
<g>
</g>
<g>
</g>
<g>
</g>
<g>
</g>
<g>
</g>
<g>
</g>
<g>
</g>
<g>
</g>
<g>
</g>
</svg>
