<?xml version="1.0" encoding="iso-8859-1"?>
<!-- Generator: Adobe Illustrator 19.0.0, SVG Export Plug-In . SVG Version: 6.00 Build 0)  -->
<svg version="1.1" id="Layer_1" xmlns="http://www.w3.org/2000/svg" xmlns:xlink="http://www.w3.org/1999/xlink" x="0px" y="0px"
	 viewBox="0 0 512 512" style="enable-background:new 0 0 512 512;" xml:space="preserve">
<linearGradient id="SVGID_1_" gradientUnits="userSpaceOnUse" x1="256" y1="61" x2="256" y2="451">
	<stop  offset="0" style="stop-color:#2AF598"/>
	<stop  offset="1" style="stop-color:#009EFD"/>
</linearGradient>
<path style="fill:url(#SVGID_1_);" d="M452,61H60C26.916,61,0,87.916,0,121v270c0,33.084,26.916,60,60,60h392
	c33.084,0,60-26.916,60-60V121C512,87.916,485.084,61,452,61z M40,391V121c0-11.028,8.972-20,20-20h392c11.028,0,20,8.972,20,20v270
	c0,5.95-2.626,11.286-6.763,14.952L390.284,331H121.716l-74.858,74.857l0.992,0.992C43.088,403.19,40,397.456,40,391z M413.715,411
	H98.285l40-40h235.432L413.715,411z M145.5,280h221c33.084,0,60-26.916,60-60s-26.916-60-60-60h-221c-33.084,0-60,26.916-60,60
	S112.416,280,145.5,280z M202.06,240c2.22-6.26,3.44-12.989,3.44-20s-1.22-13.74-3.44-20H309.94c-2.22,6.26-3.44,12.989-3.44,20
	s1.22,13.74,3.44,20H202.06z M386.5,220c0,11.028-8.972,20-20,20s-20-8.972-20-20s8.972-20,20-20S386.5,208.972,386.5,220z
	 M145.5,200c11.028,0,20,8.972,20,20s-8.972,20-20,20s-20-8.972-20-20S134.472,200,145.5,200z"/>
<g>
</g>
<g>
</g>
<g>
</g>
<g>
</g>
<g>
</g>
<g>
</g>
<g>
</g>
<g>
</g>
<g>
</g>
<g>
</g>
<g>
</g>
<g>
</g>
<g>
</g>
<g>
</g>
<g>
</g>
</svg>
