<?xml version="1.0" encoding="iso-8859-1"?>
<!-- Generator: Adobe Illustrator 19.0.0, SVG Export Plug-In . SVG Version: 6.00 Build 0)  -->
<svg version="1.1" id="Layer_1" xmlns="http://www.w3.org/2000/svg" xmlns:xlink="http://www.w3.org/1999/xlink" x="0px" y="0px"
	 viewBox="0 0 512.108 512.108" style="enable-background:new 0 0 512.108 512.108;" xml:space="preserve">
<linearGradient id="SVGID_1_" gradientUnits="userSpaceOnUse" x1="256.0541" y1="0.5363" x2="256.0541" y2="511.572">
	<stop  offset="0" style="stop-color:#2AF598"/>
	<stop  offset="1" style="stop-color:#009EFD"/>
</linearGradient>
<path style="fill:url(#SVGID_1_);" d="M512.107,302.513c-0.112-26.479-10.572-51.285-29.454-69.849
	c-17.863-17.564-41.465-27.221-66.501-27.221c-0.137,0-0.276,0-0.413,0.001c-25.188,0.107-48.87,9.975-66.679,27.782l-91.063,91.013
	l-74.555-74.555c72.843-49.102,170.745-61.198,171.871-61.331l41.055-4.782L243.904,31.107L213.311,0.536l-3.486,43.121
	c-0.103,1.273-11.176,128.214-87.332,204.372l-94.708,94.59C9.978,360.427,0.11,384.105,0.001,409.29
	c-0.109,25.186,9.553,48.948,27.206,66.91c17.871,18.185,41.755,28.261,67.251,28.371c0.143,0.001,0.281,0.001,0.425,0.001
	c25.336-0.001,49.144-9.859,67.067-27.783l166.376-166.286l80.229,80.229l-0.89,0.89l-0.05-0.05c-42.058,42.058-95,57.198-95,57.198
	l62.802,62.802c0,0,17.296-43.861,50.434-81.566l57.396-57.396C501.97,353.886,512.22,328.993,512.107,302.513z M243.587,87.359
	l68.165,68.165c-26.655,5.857-63.766,16.129-101.094,33.327C228.341,151.19,238.2,114.179,243.587,87.359z M229.705,352.517
	l-43.749,43.725l-77.578-77.58l42.392-42.339l-14.516-14.534l14.524,14.524c0.026-0.026,0.046-0.046,0.072-0.072
	c0.43-0.429,0.872-0.847,1.307-1.273L229.705,352.517z M94.632,464.572c-14.746-0.064-28.56-5.892-38.896-16.409
	c-21.024-21.393-20.874-56.051,0.326-77.251l24.013-23.983l77.589,77.589l-23.995,23.982
	C123.242,458.928,109.379,464.63,94.632,464.572z M454.962,344.325l-18.122,18.122l-80.222-80.221l20.723-20.712
	c21.214-21.214,55.877-21.361,77.27-0.327c11.217,11.028,17.431,25.766,17.497,41.496S466.085,333.203,454.962,344.325z"/>
<g>
</g>
<g>
</g>
<g>
</g>
<g>
</g>
<g>
</g>
<g>
</g>
<g>
</g>
<g>
</g>
<g>
</g>
<g>
</g>
<g>
</g>
<g>
</g>
<g>
</g>
<g>
</g>
<g>
</g>
</svg>
