<?xml version="1.0" encoding="iso-8859-1"?>
<!-- Generator: Adobe Illustrator 19.0.0, SVG Export Plug-In . SVG Version: 6.00 Build 0)  -->
<svg version="1.1" id="Layer_1" xmlns="http://www.w3.org/2000/svg" xmlns:xlink="http://www.w3.org/1999/xlink" x="0px" y="0px"
	 viewBox="0 0 512 512" style="enable-background:new 0 0 512 512;" xml:space="preserve">
<linearGradient id="SVGID_1_" gradientUnits="userSpaceOnUse" x1="256" y1="34.9629" x2="256" y2="477.0371">
	<stop  offset="0" style="stop-color:#2AF598"/>
	<stop  offset="1" style="stop-color:#009EFD"/>
</linearGradient>
<path style="fill:url(#SVGID_1_);" d="M494.426,105.573c-11.332-11.33-26.395-17.569-42.415-17.569c-0.003,0-0.008,0-0.011,0
	L258.297,88c-5.428,0.047-10.408-2.594-13.328-6.973l-30.71-46.064H60c-33.084,0-60,26.916-60,60v322.074c0,33.084,26.916,60,60,60
	h392c33.084,0,60-26.916,60-60V148C512,131.973,505.759,116.905,494.426,105.573z M40,94.963c0-11.028,8.972-20,20-20h132.852
	l18.836,28.253c1.146,1.719,2.378,3.361,3.689,4.922c-1.284,1.526-2.489,3.126-3.608,4.794l-19.292,28.069L60.01,141.007
	c-0.004,0-0.007,0-0.011,0c-6.919,0-13.661,1.164-19.999,3.398V94.963z M472,417.037c0,11.028-8.972,20-20,20H60
	c-11.028,0-20-8.972-20-20V205v-3.993c0-5.343,2.081-10.365,5.859-14.144c3.777-3.776,8.798-5.856,14.145-5.856
	c0.001,0,0.003,0,0.004,0l153.515-0.008l31.285-45.519l0.158-0.233C247.811,130.98,253.17,128,258,128c0.114,0,0.23,0,0.346,0
	l193.657,0.004c5.341-0.001,10.363,2.078,14.14,5.854c3.777,3.777,5.857,8.8,5.857,14.142V417.037z M293.661,217.43L323,201v45
	l-10.59,6.766c-1.841,0.981-15.346,7.882-36.41,10.92V349c0,23.748-19.252,43-43,43s-43-19.252-43-43s19.252-43,43-43
	c1.01,0,2.008,0.047,3,0.116v-80.999h20C277.591,225.117,292.494,218.004,293.661,217.43z"/>
<g>
</g>
<g>
</g>
<g>
</g>
<g>
</g>
<g>
</g>
<g>
</g>
<g>
</g>
<g>
</g>
<g>
</g>
<g>
</g>
<g>
</g>
<g>
</g>
<g>
</g>
<g>
</g>
<g>
</g>
</svg>
