<?xml version="1.0" encoding="iso-8859-1"?>
<!-- Generator: Adobe Illustrator 19.0.0, SVG Export Plug-In . SVG Version: 6.00 Build 0)  -->
<svg version="1.1" id="Layer_1" xmlns="http://www.w3.org/2000/svg" xmlns:xlink="http://www.w3.org/1999/xlink" x="0px" y="0px"
	 viewBox="0 0 512 512" style="enable-background:new 0 0 512 512;" xml:space="preserve">
<linearGradient id="SVGID_1_" gradientUnits="userSpaceOnUse" x1="256" y1="13.5" x2="256" y2="498.5">
	<stop  offset="0" style="stop-color:#2AF598"/>
	<stop  offset="1" style="stop-color:#009EFD"/>
</linearGradient>
<path style="fill:url(#SVGID_1_);" d="M472,134.5v-61c0-33.084-26.916-60-60-60H101c-33.084,0-60,26.916-60,60v61H0v364h512v-364
	H472z M81,73.5c0-11.028,8.972-20,20-20h311c11.028,0,20,8.972,20,20v61h-40v-30h-40v30H237v-30h-40v30h-36v-30h-40v30H81V73.5z
	 M472,174.5v40H40v-40H472z M40,458.5v-204h432v204H40z M382,284.5c-38.598,0-70,31.402-70,70s31.402,70,70,70s70-31.402,70-70
	S420.598,284.5,382,284.5z M382,384.5c-16.542,0-30-13.458-30-30s13.458-30,30-30s30,13.458,30,30S398.542,384.5,382,384.5z
	 M130,284.5c-38.598,0-70,31.402-70,70s31.402,70,70,70s70-31.402,70-70S168.598,284.5,130,284.5z M130,384.5
	c-16.542,0-30-13.458-30-30s13.458-30,30-30s30,13.458,30,30S146.542,384.5,130,384.5z M220,334.5h72v40h-72V334.5z"/>
<g>
</g>
<g>
</g>
<g>
</g>
<g>
</g>
<g>
</g>
<g>
</g>
<g>
</g>
<g>
</g>
<g>
</g>
<g>
</g>
<g>
</g>
<g>
</g>
<g>
</g>
<g>
</g>
<g>
</g>
</svg>
