<?xml version="1.0" encoding="iso-8859-1"?>
<!-- Generator: Adobe Illustrator 19.0.0, SVG Export Plug-In . SVG Version: 6.00 Build 0)  -->
<svg version="1.1" id="Layer_1" xmlns="http://www.w3.org/2000/svg" xmlns:xlink="http://www.w3.org/1999/xlink" x="0px" y="0px"
	 viewBox="0 0 512.307 512.307" style="enable-background:new 0 0 512.307 512.307;" xml:space="preserve">
<linearGradient id="SVGID_1_" gradientUnits="userSpaceOnUse" x1="256.1533" y1="7.185008e-010" x2="256.1533" y2="512.3066">
	<stop  offset="0" style="stop-color:#2AF598"/>
	<stop  offset="1" style="stop-color:#009EFD"/>
</linearGradient>
<path style="fill:url(#SVGID_1_);" d="M512.139,255.212c-0.299,57.428-22.944,111.302-63.764,151.699l-14.216,14.068l-28.137-28.432
	l14.216-14.068c68.587-67.876,69.165-178.898,1.288-247.486l-14.068-14.216l28.432-28.137l14.068,14.216
	C490.354,143.677,512.437,197.784,512.139,255.212z M396.649,155.612l-14.068-14.216l-28.432,28.137l14.068,14.216
	c38.787,39.193,38.456,102.635-0.736,141.421l-14.216,14.068l28.137,28.432l14.216-14.068
	C450.487,299.301,450.95,210.483,396.649,155.612z M339.787,211.886l-14.068-14.216l-28.432,28.137l14.068,14.216
	c7.757,7.838,7.691,20.526-0.147,28.283l-14.216,14.068l28.137,28.432l14.216-14.068
	C362.86,273.466,363.059,235.401,339.787,211.886z M95.535,158.894L272.165,0v512.307L95.78,350.894H63.165
	c-34.149,0-63-27.477-63-60v-72c0-32.523,28.851-60,63-60H95.535z M63.165,310.894h21v-112h-21c-11.822,0-23,9.72-23,20v72
	C40.165,301.174,51.343,310.894,63.165,310.894z M232.165,89.787l-108,97.156v135.706l108,98.832V89.787z"/>
<g>
</g>
<g>
</g>
<g>
</g>
<g>
</g>
<g>
</g>
<g>
</g>
<g>
</g>
<g>
</g>
<g>
</g>
<g>
</g>
<g>
</g>
<g>
</g>
<g>
</g>
<g>
</g>
<g>
</g>
</svg>
