<?xml version="1.0" encoding="iso-8859-1"?>
<!-- Generator: Adobe Illustrator 19.0.0, SVG Export Plug-In . SVG Version: 6.00 Build 0)  -->
<svg version="1.1" id="Layer_1" xmlns="http://www.w3.org/2000/svg" xmlns:xlink="http://www.w3.org/1999/xlink" x="0px" y="0px"
	 viewBox="0 0 512 512" style="enable-background:new 0 0 512 512;" xml:space="preserve">
<linearGradient id="SVGID_1_" gradientUnits="userSpaceOnUse" x1="256" y1="-8.800271e-009" x2="256" y2="512">
	<stop  offset="0" style="stop-color:#2AF598"/>
	<stop  offset="1" style="stop-color:#009EFD"/>
</linearGradient>
<path style="fill:url(#SVGID_1_);" d="M452,0H60C26.916,0,0,26.916,0,60v392c0,33.084,26.916,60,60,60h392c33.084,0,60-26.916,60-60
	V60C512,26.916,485.084,0,452,0z M472,452c0,11.028-8.972,20-20,20H60c-11.028,0-20-8.972-20-20V60c0-11.028,8.972-20,20-20h392
	c11.028,0,20,8.972,20,20V452z M256,78c-98.149,0-178,79.851-178,178s79.851,178,178,178s178-79.851,178-178S354.149,78,256,78z
	 M256,394c-76.094,0-138-61.906-138-138s61.906-138,138-138s138,61.906,138,138S332.094,394,256,394z M256,196
	c-33.084,0-60,26.916-60,60s26.916,60,60,60s60-26.916,60-60S289.084,196,256,196z M256,276c-11.028,0-20-8.972-20-20
	s8.972-20,20-20s20,8.972,20,20S267.028,276,256,276z M441,421L441,421c0,11.046-8.954,20-20,20s-20-8.954-20-20l0,0
	c0-11.046,8.954-20,20-20S441,409.954,441,421z M441,89L441,89c0,11.046-8.954,20-20,20s-20-8.954-20-20l0,0
	c0-11.046,8.954-20,20-20S441,77.954,441,89z M70,89L70,89c0-11.046,8.954-20,20-20s20,8.954,20,20l0,0c0,11.046-8.954,20-20,20
	S70,100.046,70,89z M110,422L110,422c0,11.046-8.954,20-20,20s-20-8.954-20-20l0,0c0-11.046,8.954-20,20-20S110,410.954,110,422z"/>
<g>
</g>
<g>
</g>
<g>
</g>
<g>
</g>
<g>
</g>
<g>
</g>
<g>
</g>
<g>
</g>
<g>
</g>
<g>
</g>
<g>
</g>
<g>
</g>
<g>
</g>
<g>
</g>
<g>
</g>
</svg>
