<?xml version="1.0" encoding="iso-8859-1"?>
<!-- Generator: Adobe Illustrator 19.0.0, SVG Export Plug-In . SVG Version: 6.00 Build 0)  -->
<svg version="1.1" id="Layer_1" xmlns="http://www.w3.org/2000/svg" xmlns:xlink="http://www.w3.org/1999/xlink" x="0px" y="0px"
	 viewBox="0 0 512.199 512.199" style="enable-background:new 0 0 512.199 512.199;" xml:space="preserve">
<linearGradient id="SVGID_1_" gradientUnits="userSpaceOnUse" x1="256.0995" y1="7.0995" x2="256.0995" y2="505.0995">
	<stop  offset="0" style="stop-color:#2AF598"/>
	<stop  offset="1" style="stop-color:#009EFD"/>
</linearGradient>
<path style="fill:url(#SVGID_1_);" d="M425.661,262.78l86.408,139.796l-34.025,21.031L396.6,291.842L425.661,262.78z M67.326,465.1
	h387.586v40H67.326c-24.715,0-46.655-12.888-58.69-34.475s-11.461-47.025,1.533-68.049l193.793-313.53
	c8.7-14.076,21.902-24.143,37.157-28.856V7.1h40v53.089c15.256,4.713,28.456,14.781,37.157,28.857h0.001l64.25,103.947
	L483.915,91.604l28.284,28.285l-185.12,185.12c3.828,7.893,5.978,16.745,5.978,26.09c0,33.084-26.916,60-60,60s-60-26.916-60-60
	s26.916-60,60-60c9.157,0,17.837,2.07,25.609,5.754l54.799-54.799l-69.213-111.978l0,0l-0.001,0
	c-5.065-8.195-13.497-12.896-23.131-12.896c-9.635,0-18.067,4.7-23.132,12.896L44.194,423.607
	c-5.259,8.508-5.491,18.804-0.621,27.54S57.324,465.1,67.326,465.1z M293.057,331.1c0-11.028-8.972-20-20-20s-20,8.972-20,20
	s8.972,20,20,20S293.057,342.128,293.057,331.1z"/>
<g>
</g>
<g>
</g>
<g>
</g>
<g>
</g>
<g>
</g>
<g>
</g>
<g>
</g>
<g>
</g>
<g>
</g>
<g>
</g>
<g>
</g>
<g>
</g>
<g>
</g>
<g>
</g>
<g>
</g>
</svg>
