<?xml version="1.0" encoding="iso-8859-1"?>
<!-- Generator: Adobe Illustrator 19.0.0, SVG Export Plug-In . SVG Version: 6.00 Build 0)  -->
<svg version="1.1" id="Layer_1" xmlns="http://www.w3.org/2000/svg" xmlns:xlink="http://www.w3.org/1999/xlink" x="0px" y="0px"
	 viewBox="0 0 512 512" style="enable-background:new 0 0 512 512;" xml:space="preserve">
<linearGradient id="SVGID_1_" gradientUnits="userSpaceOnUse" x1="256" y1="-7.879862e-009" x2="256" y2="512">
	<stop  offset="0" style="stop-color:#2AF598"/>
	<stop  offset="1" style="stop-color:#009EFD"/>
</linearGradient>
<path style="fill:url(#SVGID_1_);" d="M411.5,60c0-11.028,8.972-20,20-20s20,8.972,20,20c0,5.012-1.861,9.805-5.24,13.496
	l29.505,27.008C485.912,89.42,491.5,75.035,491.5,60c0-33.084-26.916-60-60-60s-60,26.916-60,60c0,9.4,0.329,18.385,0.936,27H351.5
	V47.116h-40V87h-35V47.116h-40V87h-35V47.116h-40V87h-22.007c0.651-8.638,1.007-17.621,1.007-27c0-33.084-26.916-60-60-60
	s-60,26.916-60,60c0,16.79,7.105,32.924,19.495,44.265l27.009-29.504C62.81,70.921,60.5,65.679,60.5,60c0-11.028,8.972-20,20-20
	s20,8.972,20,20c0,64.591-18.579,107.979-36.547,149.938C47.778,247.711,32.5,283.39,32.5,329.5c0,25.228,6.527,49.775,19.399,72.96
	c11.981,21.58,28.894,40.994,50.269,57.702c5.342,4.176,10.91,8.124,16.67,11.838H66.5v40h378v-40h-51.339
	c5.76-3.714,11.328-7.662,16.67-11.838c21.375-16.708,38.288-36.122,50.269-57.702c12.873-23.185,19.399-47.732,19.399-72.96
	c0-45.742-15.068-80.289-31.021-116.863C430.299,170.957,411.5,127.857,411.5,60z M311.5,127v337.756
	c-11.301,2.992-23.014,5.114-35,6.257V127H311.5z M236.5,127v344.107c-11.98-1.086-23.694-3.151-35-6.087V127H236.5z M72.5,329.5
	c0-37.906,13.079-68.45,28.224-103.816c12.285-28.689,25.647-59.905,33.335-98.684H161.5v323.253
	C108.993,424.564,72.5,379.019,72.5,329.5z M351.5,449.758V127h26.083c7.712,40.791,21.536,72.521,34.232,101.628
	C426.67,262.688,439.5,292.102,439.5,329.5C439.5,378.703,403.468,423.982,351.5,449.758z"/>
<g>
</g>
<g>
</g>
<g>
</g>
<g>
</g>
<g>
</g>
<g>
</g>
<g>
</g>
<g>
</g>
<g>
</g>
<g>
</g>
<g>
</g>
<g>
</g>
<g>
</g>
<g>
</g>
<g>
</g>
</svg>
