<?xml version="1.0" encoding="iso-8859-1"?>
<!-- Generator: Adobe Illustrator 19.0.0, SVG Export Plug-In . SVG Version: 6.00 Build 0)  -->
<svg version="1.1" id="Layer_1" xmlns="http://www.w3.org/2000/svg" xmlns:xlink="http://www.w3.org/1999/xlink" x="0px" y="0px"
	 viewBox="0 0 512 512" style="enable-background:new 0 0 512 512;" xml:space="preserve">
<linearGradient id="SVGID_1_" gradientUnits="userSpaceOnUse" x1="256" y1="-6.290065e-009" x2="256" y2="512">
	<stop  offset="0" style="stop-color:#2AF598"/>
	<stop  offset="1" style="stop-color:#009EFD"/>
</linearGradient>
<path style="fill:url(#SVGID_1_);" d="M83.625,330l-63.7,182h42.379l9.1-26h54.174l8.97,26h42.313l-62.79-182H83.625z M85.405,446
	l13.281-37.948L111.778,446H85.405z M260.625,330l-63.7,182h42.379l9.1-26h54.174l8.97,26h42.313l-62.79-182H260.625z M262.405,446
	l13.281-37.948L288.778,446H262.405z M475.777,467.611l16.297,36.529c-11.69,5.215-24.141,7.859-37.008,7.859
	c-50.148,0-90.946-40.822-90.946-91s40.798-91,90.946-91c12.867,0,25.318,2.645,37.008,7.859l-16.297,36.529
	c-6.528-2.912-13.496-4.389-20.711-4.389c-28.092,0-50.946,22.879-50.946,51s22.854,51,50.946,51
	C462.281,472,469.25,470.523,475.777,467.611z M95.926,60c0-11.028,8.972-20,20-20h174.889v71.111c0,33.084,26.916,60,60,60h71V290
	h40V142.856L319.684,0H115.926c-33.084,0-60,26.916-60,60v230h40V60z M330.814,111.111V67.9l62.889,63.211h-42.889
	C339.787,131.111,330.814,122.14,330.814,111.111z"/>
<g>
</g>
<g>
</g>
<g>
</g>
<g>
</g>
<g>
</g>
<g>
</g>
<g>
</g>
<g>
</g>
<g>
</g>
<g>
</g>
<g>
</g>
<g>
</g>
<g>
</g>
<g>
</g>
<g>
</g>
</svg>
