<?xml version="1.0" encoding="iso-8859-1"?>
<!-- Generator: Adobe Illustrator 19.0.0, SVG Export Plug-In . SVG Version: 6.00 Build 0)  -->
<svg version="1.1" id="Layer_1" xmlns="http://www.w3.org/2000/svg" xmlns:xlink="http://www.w3.org/1999/xlink" x="0px" y="0px"
	 viewBox="0 0 512 512" style="enable-background:new 0 0 512 512;" xml:space="preserve">
<linearGradient id="SVGID_1_" gradientUnits="userSpaceOnUse" x1="256" y1="-1.149238e-008" x2="256" y2="512">
	<stop  offset="0" style="stop-color:#2AF598"/>
	<stop  offset="1" style="stop-color:#009EFD"/>
</linearGradient>
<path style="fill:url(#SVGID_1_);" d="M60.073,472c5.682,14.92,14.162,28.468,24.801,40H0v-40H60.073z M76.561,354H0v40h56.74
	C60.91,379.393,67.698,365.879,76.561,354z M267.126,512H512v-40H291.927C286.245,486.92,277.765,500.468,267.126,512z
	 M393.094,172.641c-2.234,1.49-51.98,34.041-133.094,38.785V428c0,46.317-37.683,84-84,84s-84-37.683-84-84s37.683-84,84-84
	c16.124,0,31.194,4.576,44,12.484V80h20c67.77,0,131.227-36.866,131.859-37.238L402,25.031v141.673L393.094,172.641z M220,428
	c0-24.262-19.738-44-44-44s-44,19.738-44,44s19.738,44,44,44S220,452.262,220,428z M362,92.15
	c-24.457,10.627-61.401,23.586-102,26.995v52.192c50.153-3.379,86.173-18.855,102-26.991V92.15z M299,276h213v-40H299V276z M300,394
	h212v-40H300V394z M179,236H0v40h179V236z M180,118H0v40h180V118z M442,158h70v-40h-70V158z M442,0v40h70V0H442z M351.579,8.284
	L365.662,0H0v40h240.267C296.1,40,351.04,8.601,351.579,8.284z"/>
<g>
</g>
<g>
</g>
<g>
</g>
<g>
</g>
<g>
</g>
<g>
</g>
<g>
</g>
<g>
</g>
<g>
</g>
<g>
</g>
<g>
</g>
<g>
</g>
<g>
</g>
<g>
</g>
<g>
</g>
</svg>
