<?xml version="1.0" encoding="iso-8859-1"?>
<!-- Generator: Adobe Illustrator 19.0.0, SVG Export Plug-In . SVG Version: 6.00 Build 0)  -->
<svg version="1.1" id="Layer_1" xmlns="http://www.w3.org/2000/svg" xmlns:xlink="http://www.w3.org/1999/xlink" x="0px" y="0px"
	 viewBox="0 0 512 512" style="enable-background:new 0 0 512 512;" xml:space="preserve">
<linearGradient id="SVGID_1_" gradientUnits="userSpaceOnUse" x1="256" y1="0.0942" x2="256" y2="511.9058">
	<stop  offset="0" style="stop-color:#2AF598"/>
	<stop  offset="1" style="stop-color:#009EFD"/>
</linearGradient>
<path style="fill:url(#SVGID_1_);" d="M512,119.763v272c0,33.084-26.916,60-60,60H249v-40h203c11.028,0,20-8.972,20-20v-272
	c0-11.028-8.972-20-20-20h-72.136l32.332,32.331l-28.285,28.285l-80.142-80.143L383.91,0.094l28.285,28.285l-31.384,31.384H452
	C485.084,59.763,512,86.679,512,119.763z M287,342.763v-174h-80v40h40v134H287z M99.857,379.906l31.858,31.857H60
	c-11.028,0-20-8.972-20-20v-272c0-11.028,8.972-20,20-20h205v-40H60c-33.084,0-60,26.916-60,60v272c0,33.084,26.916,60,60,60h71.715
	l-31.858,31.857l28.285,28.285l80.142-80.143l-80.142-80.143L99.857,379.906z"/>
<g>
</g>
<g>
</g>
<g>
</g>
<g>
</g>
<g>
</g>
<g>
</g>
<g>
</g>
<g>
</g>
<g>
</g>
<g>
</g>
<g>
</g>
<g>
</g>
<g>
</g>
<g>
</g>
<g>
</g>
</svg>
