<?xml version="1.0" encoding="iso-8859-1"?>
<!-- Generator: Adobe Illustrator 19.0.0, SVG Export Plug-In . SVG Version: 6.00 Build 0)  -->
<svg version="1.1" id="Layer_1" xmlns="http://www.w3.org/2000/svg" xmlns:xlink="http://www.w3.org/1999/xlink" x="0px" y="0px"
	 viewBox="0 0 512.533 512.533" style="enable-background:new 0 0 512.533 512.533;" xml:space="preserve">
<linearGradient id="SVGID_1_" gradientUnits="userSpaceOnUse" x1="256.2666" y1="9.3784" x2="256.2666" y2="503.1548">
	<stop  offset="0" style="stop-color:#2AF598"/>
	<stop  offset="1" style="stop-color:#009EFD"/>
</linearGradient>
<path style="fill:url(#SVGID_1_);" d="M312.597,503.155V271.799l199.937,115.678L312.597,503.155z M352.597,341.155v92.645
	l80.063-46.322L352.597,341.155z M272.597,367.848l-17-8.76l-104.38,53.788l19.923-113.854l-83.946-80.205l116.056-16.529
	l52.348-103.965l52.348,103.965L424,218.816l-46.431,44.362l36.065,20.866l97.56-93.212l-176.921-25.199L255.597,9.378
	l-78.676,156.254L0,190.832l128.054,122.348L97.93,485.333l157.667-81.247l17,8.76V367.848z"/>
<g>
</g>
<g>
</g>
<g>
</g>
<g>
</g>
<g>
</g>
<g>
</g>
<g>
</g>
<g>
</g>
<g>
</g>
<g>
</g>
<g>
</g>
<g>
</g>
<g>
</g>
<g>
</g>
<g>
</g>
</svg>
